<svg width="13" height="14" viewBox="0 0 13 14" fill="none" xmlns="http://www.w3.org/2000/svg">
<path d="M6.64418 6.97342C7.33171 6.97342 8.0038 6.76954 8.57546 6.38757C9.14712 6.0056 9.59267 5.46269 9.85578 4.8275C10.1189 4.1923 10.1877 3.49335 10.0536 2.81903C9.91947 2.14471 9.58839 1.52531 9.10223 1.03916C8.61608 0.552999 7.99667 0.221922 7.32236 0.0877921C6.64804 -0.0463383 5.94909 0.0225023 5.31389 0.285608C4.6787 0.548715 4.13579 0.994269 3.75382 1.56593C3.37184 2.13759 3.16797 2.80968 3.16797 3.49721C3.16797 4.41916 3.53421 5.30334 4.18613 5.95526C4.83804 6.60718 5.72223 6.97342 6.64418 6.97342ZM6.64418 1.0142C7.13527 1.0142 7.61534 1.15983 8.02366 1.43266C8.43199 1.7055 8.75025 2.09329 8.93818 2.547C9.12611 3.00071 9.17528 3.49996 9.07948 3.98162C8.98367 4.46328 8.74719 4.90571 8.39993 5.25296C8.05268 5.60022 7.61025 5.8367 7.12859 5.93251C6.64693 6.02831 6.14768 5.97914 5.69397 5.79121C5.24026 5.60328 4.85247 5.28502 4.57963 4.87669C4.3068 4.46837 4.16117 3.9883 4.16117 3.49721C4.16117 2.83867 4.42277 2.20711 4.88843 1.74146C5.35408 1.2758 5.98565 1.0142 6.64418 1.0142Z" fill="#19242B"/>
<path d="M7.13941 7.9668H6.14621C4.69743 7.9668 3.308 8.54232 2.28356 9.56676C1.25912 10.5912 0.683594 11.9806 0.683594 13.4294C0.683594 13.5611 0.735914 13.6874 0.829045 13.7806C0.922176 13.8737 1.04849 13.926 1.1802 13.926H12.1054C12.2371 13.926 12.3635 13.8737 12.4566 13.7806C12.5497 13.6874 12.602 13.5611 12.602 13.4294C12.602 11.9806 12.0265 10.5912 11.0021 9.56676C9.97763 8.54232 8.58819 7.9668 7.13941 7.9668ZM1.70659 12.9328C1.82871 11.8406 2.34895 10.8317 3.16793 10.0988C3.98691 9.36595 5.0472 8.96052 6.14621 8.96H7.13941C8.23842 8.96052 9.29871 9.36595 10.1177 10.0988C10.9367 10.8317 11.4569 11.8406 11.579 12.9328H1.70659Z" fill="#19242B"/>
</svg>
