<svg width="21" height="24" viewBox="0 0 21 24" fill="none" xmlns="http://www.w3.org/2000/svg">
<path d="M14.742 23.4528H1.58833C1.35874 23.4528 1.13855 23.3616 0.976208 23.1992C0.813862 23.0369 0.722656 22.8167 0.722656 22.5871V5.7889C0.722656 5.5593 0.813862 5.33912 0.976208 5.17677C1.13855 5.01442 1.35874 4.92322 1.58833 4.92322H14.742C14.9716 4.92322 15.1918 5.01442 15.3542 5.17677C15.5165 5.33912 15.6077 5.5593 15.6077 5.7889V22.5871C15.6077 22.8167 15.5165 23.0369 15.3542 23.1992C15.1918 23.3616 14.9716 23.4528 14.742 23.4528ZM2.45401 21.7214H13.8764V6.65457H2.45401V21.7214Z" fill="#19242B"/>
<path d="M19.4061 18.7822H14.7355C14.5059 18.7822 14.2857 18.691 14.1233 18.5287C13.961 18.3663 13.8698 18.1462 13.8698 17.9166C13.8698 17.687 13.961 17.4668 14.1233 17.3044C14.2857 17.1421 14.5059 17.0509 14.7355 17.0509H18.5404V1.98404H7.11808V5.78841C7.11808 6.018 7.02687 6.23819 6.86452 6.40054C6.70218 6.56288 6.48199 6.65409 6.2524 6.65409C6.02281 6.65409 5.80262 6.56288 5.64027 6.40054C5.47792 6.23819 5.38672 6.018 5.38672 5.78841V1.11836C5.38672 0.888772 5.47792 0.668583 5.64027 0.506237C5.80262 0.343891 6.02281 0.252686 6.2524 0.252686H19.4061C19.6357 0.252686 19.8559 0.343891 20.0182 0.506237C20.1806 0.668583 20.2718 0.888772 20.2718 1.11836V17.9166C20.2718 18.1462 20.1806 18.3663 20.0182 18.5287C19.8559 18.691 19.6357 18.7822 19.4061 18.7822Z" fill="#19242B"/>
</svg>
