<svg width="40" height="39" viewBox="0 0 40 39" fill="none" xmlns="http://www.w3.org/2000/svg">
<path d="M33.5227 0.37793H6.39141C3.27516 0.37793 0.738281 2.91293 0.738281 6.03105V33.1642C0.738281 36.2804 3.27328 38.8173 6.39141 38.8173H33.5245C36.6408 38.8173 39.1777 36.2823 39.1777 33.1642V6.03105C39.1758 2.91293 36.6408 0.37793 33.5227 0.37793ZM36.9145 33.1623C36.9145 35.0317 35.3939 36.5542 33.5227 36.5542H6.39141C4.52203 36.5542 2.99953 35.0336 2.99953 33.1623V29.0729L12.1233 18.9348L24.4477 30.1379L31.2633 24.4586L36.9164 29.1686V33.1623H36.9145ZM36.9145 26.2267L31.2614 21.5167L24.5095 27.1417L11.9639 15.7342L2.99953 25.6942V6.03105C2.99953 4.16168 4.52016 2.63918 6.39141 2.63918H33.5245C35.3939 2.63918 36.9164 4.1598 36.9164 6.03105V26.2267H36.9145Z" fill="#40494E"/>
<path d="M27.8719 17.3355C30.9881 17.3355 33.525 14.8005 33.525 11.6824C33.525 8.5643 30.99 6.0293 27.8719 6.0293C24.7556 6.0293 22.2188 8.5643 22.2188 11.6824C22.2188 14.8005 24.7538 17.3355 27.8719 17.3355ZM27.8719 8.29242C29.7413 8.29242 31.2638 9.81305 31.2638 11.6843C31.2638 13.5555 29.7431 15.0762 27.8719 15.0762C26.0006 15.0762 24.48 13.5555 24.48 11.6843C24.48 9.81305 26.0006 8.29242 27.8719 8.29242Z" fill="#40494E"/>
</svg>
