<svg width="21" height="21" viewBox="0 0 21 21" fill="none" xmlns="http://www.w3.org/2000/svg">
<path d="M8.45446 19.1277C8.90824 19.1277 9.2761 18.7598 9.2761 18.306C9.2761 17.8522 8.90824 17.4844 8.45446 17.4844C8.00068 17.4844 7.63281 17.8522 7.63281 18.306C7.63281 18.7598 8.00068 19.1277 8.45446 19.1277Z" stroke="#19242B" stroke-width="2" stroke-linecap="round" stroke-linejoin="round"/>
<path d="M17.4935 19.1277C17.9473 19.1277 18.3152 18.7598 18.3152 18.306C18.3152 17.8522 17.9473 17.4844 17.4935 17.4844C17.0397 17.4844 16.6719 17.8522 16.6719 18.306C16.6719 18.7598 17.0397 19.1277 17.4935 19.1277Z" stroke="#19242B" stroke-width="2" stroke-linecap="round" stroke-linejoin="round"/>
<path d="M1.88281 1.87305H5.1694L7.37141 12.8749C7.44654 13.2532 7.65233 13.593 7.95276 13.8348C8.25318 14.0767 8.6291 14.2051 9.0147 14.1977H17.0011C17.3867 14.2051 17.7626 14.0767 18.063 13.8348C18.3635 13.593 18.5693 13.2532 18.6444 12.8749L19.959 5.98128H5.99104" stroke="#19242B" stroke-width="2" stroke-linecap="round" stroke-linejoin="round"/>
</svg>
