<svg width="19" height="23" viewBox="0 0 19 23" fill="none" xmlns="http://www.w3.org/2000/svg">
<path d="M18.1508 19.8836H1.38479C1.25488 19.8832 1.12722 19.8496 1.01395 19.786C0.900679 19.7224 0.805547 19.6309 0.737589 19.5202C0.669632 19.4095 0.631105 19.2832 0.625668 19.1534C0.620231 19.0236 0.648064 18.8946 0.706524 18.7786C1.64684 16.8833 2.13961 14.7975 2.14688 12.6818V9.9764C2.14688 7.9552 2.9498 6.01679 4.379 4.58759C5.8082 3.15839 7.74661 2.35547 9.76781 2.35547C11.789 2.35547 13.7274 3.15839 15.1566 4.58759C16.5858 6.01679 17.3887 7.9552 17.3887 9.9764V12.6666C17.396 14.7823 17.8888 16.8681 18.8291 18.7633C18.8912 18.8799 18.9219 19.0105 18.9182 19.1425C18.9146 19.2745 18.8767 19.4033 18.8083 19.5162C18.74 19.6292 18.6434 19.7224 18.5281 19.7868C18.4129 19.8512 18.2829 19.8846 18.1508 19.8836V19.8836ZM2.56603 18.3594H16.9696C16.2428 16.5493 15.8678 14.6172 15.8646 12.6666V9.9764C15.8646 8.35944 15.2222 6.80871 14.0789 5.66535C12.9355 4.52199 11.3848 3.87965 9.76781 3.87965C8.15085 3.87965 6.60012 4.52199 5.45676 5.66535C4.3134 6.80871 3.67107 8.35944 3.67107 9.9764V12.6666C3.66781 14.6172 3.29277 16.5493 2.56603 18.3594V18.3594Z" fill="#19242B"/>
<path d="M9.7675 22.9319C8.7569 22.9319 7.78769 22.5305 7.07309 21.8159C6.35849 21.1013 5.95703 20.1321 5.95703 19.1215C5.95703 18.9193 6.03732 18.7255 6.18024 18.5826C6.32316 18.4397 6.517 18.3594 6.71912 18.3594C6.92124 18.3594 7.11508 18.4397 7.25801 18.5826C7.40093 18.7255 7.48122 18.9193 7.48122 19.1215C7.48175 19.7276 7.72298 20.3088 8.15186 20.7371C8.58799 21.1509 9.16628 21.3816 9.7675 21.3816C10.3687 21.3816 10.947 21.1509 11.3831 20.7371C11.4542 20.666 11.5385 20.6097 11.6314 20.5712C11.7242 20.5328 11.8237 20.513 11.9242 20.513C12.0247 20.513 12.1242 20.5328 12.2171 20.5712C12.3099 20.6097 12.3942 20.666 12.4653 20.7371C12.5364 20.8082 12.5927 20.8925 12.6312 20.9854C12.6696 21.0782 12.6894 21.1777 12.6894 21.2782C12.6894 21.3787 12.6696 21.4782 12.6312 21.571C12.5927 21.6639 12.5364 21.7482 12.4653 21.8193C12.1108 22.1729 11.69 22.4532 11.2271 22.6441C10.7642 22.835 10.2682 22.9328 9.7675 22.9319Z" fill="#19242B"/>
<path d="M9.76991 3.87882C9.56779 3.87882 9.37394 3.79853 9.23102 3.65561C9.0881 3.51269 9.00781 3.31885 9.00781 3.11673V0.830452C9.00781 0.628333 9.0881 0.434491 9.23102 0.291571C9.37394 0.148651 9.56779 0.0683594 9.76991 0.0683594C9.97202 0.0683594 10.1659 0.148651 10.3088 0.291571C10.4517 0.434491 10.532 0.628333 10.532 0.830452V3.11673C10.532 3.31885 10.4517 3.51269 10.3088 3.65561C10.1659 3.79853 9.97202 3.87882 9.76991 3.87882Z" fill="#19242B"/>
</svg>
