<svg width="22" height="22" viewBox="0 0 22 22" fill="none" xmlns="http://www.w3.org/2000/svg">
<path d="M0 20.7679C0 21.314 0.442322 21.7568 0.988947 21.7568C1.53557 21.7568 1.97789 21.314 1.97789 20.7679C1.97789 17.2781 3.98693 14.1885 7.1185 12.7275C8.20227 13.4318 9.49157 13.8453 10.8775 13.8453C12.2686 13.8453 13.5628 13.429 14.6491 12.7198C15.584 13.1611 16.4504 13.7548 17.1714 14.4754C18.8528 16.1573 19.7789 18.3921 19.7789 20.7679C19.7789 21.314 20.2213 21.7568 20.7679 21.7568C21.3145 21.7568 21.7568 21.314 21.7568 20.7679C21.7568 17.8638 20.625 15.1326 18.5698 13.077C17.8821 12.3889 17.0829 11.799 16.2254 11.3126C17.2086 10.117 17.8001 8.58774 17.8001 6.92263C17.8001 3.10543 14.6942 0 10.8775 0C7.06073 0 3.95482 3.10543 3.95482 6.92263C3.95482 8.58369 4.54388 10.1092 5.52275 11.3035C2.12789 13.2149 0 16.7862 0 20.7679V20.7679ZM10.8775 1.97789C13.6038 1.97789 15.8222 4.19626 15.8222 6.92263C15.8222 9.64899 13.6038 11.8674 10.8775 11.8674C8.15109 11.8674 5.93272 9.64899 5.93272 6.92263C5.93272 4.19626 8.15109 1.97789 10.8775 1.97789V1.97789Z" fill="#19242B"/>
</svg>
