<svg width="28" height="21" viewBox="0 0 28 21" fill="none" xmlns="http://www.w3.org/2000/svg">
<path d="M18.3244 14.1823C16.2941 14.1823 14.6409 12.5303 14.6409 10.4988C14.6409 8.47192 16.2941 6.81872 18.3244 6.81872H25.3289V14.1823H18.3244ZM18.2043 9.60884C17.7138 9.60884 17.3143 10.0084 17.3143 10.4988C17.3143 10.9916 17.7138 11.3889 18.2043 11.3889C18.6948 11.3889 19.0943 10.9916 19.0943 10.4988C19.0943 10.0084 18.6948 9.60884 18.2043 9.60884ZM23.0651 0.703125H4.34909C3.85639 0.703125 3.45908 1.10268 3.45908 1.59314C3.45908 2.08359 3.85639 2.48315 4.34909 2.48315H23.0651C24.3132 2.48315 25.3289 3.49886 25.3289 4.75026V5.03758H18.3244C15.312 5.03758 12.8597 7.48651 12.8597 10.4988C12.8597 13.5123 15.312 15.9635 18.3244 15.9635H25.3289V16.2508C25.3289 17.5 24.3132 18.5157 23.0651 18.5157H4.43551C3.18748 18.5157 2.17177 17.5 2.17177 16.2508V4.66159C2.17177 4.16889 1.77334 3.77046 1.28176 3.77046C0.789053 3.77046 0.390625 4.16889 0.390625 4.66159V16.2508C0.390625 18.4831 2.20544 20.2968 4.43551 20.2968H23.0651C25.2952 20.2968 27.1111 18.4831 27.1111 16.2508V4.75026C27.1111 2.51682 25.2952 0.703125 23.0651 0.703125Z" fill="#19242B"/>
</svg>
