<svg width="24" height="24" viewBox="0 0 24 24" fill="none" xmlns="http://www.w3.org/2000/svg">
<path d="M0.236978 15.156L2.83932 13.17C2.79 12.786 2.753 12.396 2.753 12C2.753 11.604 2.79 11.2141 2.83932 10.8301L0.23079 8.84398C-0.00352615 8.66398 -0.0713986 8.33999 0.0827889 8.076L2.5495 3.91799C2.70369 3.65997 3.02432 3.55197 3.30182 3.65997L6.37285 4.86597C7.00805 4.39195 7.70487 3.98999 8.45719 3.68399L8.91969 0.504006C8.97525 0.22202 9.22807 0 9.53638 0H14.4697C14.7781 0 15.0309 0.22202 15.0803 0.504006L15.5428 3.68399C16.2951 3.98999 16.992 4.38599 17.6271 4.86597L20.6981 3.65997C20.9756 3.55799 21.2963 3.65997 21.4504 3.91799L23.9172 8.076C24.0714 8.33402 24.0035 8.65802 23.7692 8.84398L21.1669 10.8301C21.2162 11.2141 21.2532 11.604 21.2532 12C21.2532 12.396 21.2162 12.786 21.1669 13.17L23.7692 15.156C24.0035 15.336 24.0714 15.6601 23.9172 15.924L21.4505 20.082C21.2963 20.34 20.9757 20.4481 20.6982 20.34L17.6271 19.134C16.992 19.608 16.2951 20.01 15.5428 20.316L15.0803 23.496C15.031 23.778 14.7781 24 14.4698 24H9.53644C9.22812 24 8.97525 23.778 8.92594 23.496L8.46343 20.316C7.71111 20.01 7.01423 19.614 6.3791 19.134L3.30807 20.34C3.03056 20.442 2.70988 20.34 2.55575 20.082L0.0890328 15.924C-0.0652125 15.6661 0.00266129 15.3421 0.236978 15.156ZM12.0031 16.2C14.3896 16.2 16.3198 14.322 16.3198 12C16.3198 9.678 14.3896 7.80004 12.0031 7.80004C9.61657 7.80004 7.68637 9.6781 7.68637 12.0001C7.68637 14.322 9.61657 16.2 12.0031 16.2Z" fill="url(#paint0_linear_2050_6)"/>
<defs>
<linearGradient id="paint0_linear_2050_6" x1="24" y1="12" x2="-2.42943e-07" y2="12" gradientUnits="userSpaceOnUse">
<stop stop-color="#6D19FC"/>
<stop offset="1" stop-color="#7D1FA5"/>
</linearGradient>
</defs>
</svg>
