<svg width="41" height="30" viewBox="0 0 41 30" fill="none" xmlns="http://www.w3.org/2000/svg">
<path d="M14.0618 26.8338C12.8647 25.7694 11.7361 24.6879 10.6759 23.5893C9.6499 22.525 8.74358 21.4091 7.95697 20.2418C7.17036 19.0745 6.53765 17.8728 6.05885 16.6368C5.61424 15.4008 5.39194 14.0961 5.39194 12.7228C5.39194 12.2421 5.40904 11.813 5.44324 11.4353C5.51164 11.0576 5.58004 10.6285 5.64844 10.1478L5.90494 10.1993C6.48635 11.3666 7.25586 12.225 8.21348 12.7743C9.17109 13.3236 10.1629 13.5983 11.1889 13.5983C11.9755 13.5983 12.745 13.4438 13.4975 13.1348C14.2841 12.8258 14.9681 12.3795 15.5495 11.7958C16.1651 11.2121 16.661 10.4911 17.0372 9.63281C17.4134 8.80881 17.6015 7.86465 17.6015 6.80032C17.6015 5.90765 17.4476 5.04932 17.1398 4.22532C16.832 3.43566 16.3874 2.74899 15.806 2.16533C15.2246 1.58166 14.5064 1.11816 13.6514 0.77483C12.8305 0.431496 11.8729 0.259829 10.7785 0.259829C9.47889 0.259829 8.23058 0.500162 7.03356 0.980827C5.83654 1.49583 4.77633 2.23399 3.85291 3.19532C2.9295 4.15666 2.19419 5.34115 1.64698 6.74882C1.09978 8.15648 0.826172 9.77014 0.826172 11.5898C0.826172 14.7141 1.69828 17.787 3.44251 20.8083C5.22093 23.864 7.87147 26.8338 11.3941 29.7178C11.9755 29.3401 12.4714 28.9109 12.8818 28.4303C13.3264 27.9496 13.7198 27.4174 14.0618 26.8338ZM36.6341 26.8338C35.4371 25.7694 34.3084 24.6879 33.2482 23.5893C32.2222 22.525 31.3159 21.4091 30.5293 20.2418C29.7427 19.0745 29.11 17.8728 28.6312 16.6368C28.1866 15.4008 27.9643 14.0961 27.9643 12.7228C27.9643 12.2421 27.9814 11.813 28.0156 11.4353C28.084 11.0576 28.1524 10.6285 28.2208 10.1478L28.4773 10.1993C29.0587 11.3666 29.8282 12.225 30.7858 12.7743C31.7434 13.3236 32.7352 13.5983 33.7612 13.5983C34.5478 13.5983 35.3174 13.4438 36.0698 13.1348C36.8564 12.8258 37.5404 12.3795 38.1218 11.7958C38.7374 11.2121 39.2333 10.4911 39.6095 9.63281C39.9857 8.80881 40.1738 7.86465 40.1738 6.80032C40.1738 5.90765 40.0199 5.04932 39.7121 4.22532C39.4043 3.43566 38.9597 2.74899 38.3783 2.16533C37.7969 1.58166 37.0787 1.11816 36.2237 0.77483C35.4029 0.431496 34.4452 0.259829 33.3508 0.259829C32.0512 0.259829 30.8029 0.500162 29.6059 0.980827C28.4089 1.49583 27.3486 2.23399 26.4252 3.19532C25.5018 4.15666 24.7665 5.34115 24.2193 6.74882C23.6721 8.15648 23.3985 9.77014 23.3985 11.5898C23.3985 14.7141 24.2706 17.787 26.0148 20.8083C27.7933 23.864 30.4438 26.8338 33.9664 29.7178C34.5478 29.3401 35.0438 28.9109 35.4542 28.4303C35.8988 27.9496 36.2921 27.4174 36.6341 26.8338Z" fill="#6D9891"/>
</svg>
