<svg width="25" height="21" viewBox="0 0 25 21" fill="none" xmlns="http://www.w3.org/2000/svg">
<path d="M16.5 14.0962L12.5 10.0962L8.5 14.0962" stroke="white" stroke-width="2" stroke-linecap="round" stroke-linejoin="round"/>
<path d="M12.5 10.0962V19.0962" stroke="white" stroke-width="2" stroke-linecap="round" stroke-linejoin="round"/>
<path d="M20.8914 16.4862C21.8668 15.9544 22.6373 15.1131 23.0813 14.0948C23.5253 13.0765 23.6176 11.9394 23.3436 10.8629C23.0696 9.78632 22.4449 8.83169 21.5681 8.14962C20.6913 7.46756 19.6123 7.09691 18.5014 7.09618H17.2414C16.9387 5.92542 16.3746 4.83851 15.5914 3.91717C14.8082 2.99583 13.8263 2.26403 12.7195 1.77678C11.6128 1.28954 10.41 1.05953 9.20154 1.10406C7.99311 1.14858 6.81049 1.46648 5.7426 2.03384C4.67471 2.60121 3.74934 3.40328 3.03605 4.37976C2.32276 5.35624 1.84012 6.48171 1.6244 7.67157C1.40869 8.86143 1.46553 10.0847 1.79064 11.2494C2.11575 12.4142 2.70067 13.49 3.50143 14.3962" stroke="white" stroke-width="2" stroke-linecap="round" stroke-linejoin="round"/>
<path d="M16.5 14.0962L12.5 10.0962L8.5 14.0962" stroke="white" stroke-width="2" stroke-linecap="round" stroke-linejoin="round"/>
</svg>
