<svg width="547" viewBox="0 0 547 371" fill="none" xmlns="http://www.w3.org/2000/svg">
<path d="M502.616 329.198C471.316 342.351 471.424 364.345 462.466 360.895C462.034 360.679 461.602 360.571 461.278 360.248C455.126 356.043 465.056 342.136 454.047 311.733C447.032 292.542 433.108 257.288 445.736 248.878C456.529 241.763 463.005 272.273 478.763 263.109C490.312 256.533 465.919 240.038 475.201 231.736C485.563 222.572 493.766 245.967 501.644 235.833C509.523 225.699 505.422 204.028 516.647 206.293C516.863 206.293 516.971 206.4 517.186 206.4C527.764 209.096 523.77 225.591 520.532 236.372C517.294 247.261 515.567 250.388 519.021 251.034C522.475 251.789 537.585 243.595 540.176 254.161C542.874 264.727 515.136 272.705 510.603 286.505C506.07 300.305 530.354 285.534 529.167 299.765C528.627 308.283 518.158 322.729 502.616 329.198Z" fill="#2488FF" fill-opacity="0.15"/>
<path d="M517.08 303.216L483.514 312.919L496.357 276.91L521.289 262.894L497.437 273.891L512.439 231.844L502.51 255.994L489.45 244.027L501.538 258.258L486.32 295.13L457.395 270.98L485.349 297.286L466.353 343.753L470.778 345.478L482.542 315.506L517.08 303.216Z" fill="white"/>
<path d="M456.975 345.667C460.42 342.813 479.376 326.795 471.705 322.524C464.306 318.469 458.163 339.3 456.712 344.627C454.962 338.811 453.136 333.56 451.25 328.558C456.1 324.5 472.46 310.019 465.158 306.1C458.286 302.284 452.451 320.032 450.552 326.905C448.634 322.027 446.721 317.657 444.667 313.591C447.541 309.096 459.581 289.703 450.631 288.488C442.572 287.357 443.097 304.681 443.679 311.53C441.011 306.264 438.236 301.687 435.515 297.687C437.765 292.815 446.696 272.562 437.614 272.668C429.453 272.734 432.465 288.702 434.097 295.522C430.185 290.014 426.252 285.646 422.66 282.263C423.808 276.845 427.377 256.409 418.311 258.55C410.484 260.425 416.607 273.57 420.096 279.992C419.407 279.356 418.638 278.777 417.918 278.265C414.7 275.742 411.661 273.808 408.833 272.338C408.699 267.626 407.617 246.503 398.774 250.633C390.898 254.282 401.72 266.341 406.501 271.232C398.9 267.729 393.538 267.547 392.488 267.577C387.996 263.094 375.382 251.693 370.702 259.006C365.943 266.375 384.67 268.627 391.499 269.199C391.596 269.335 391.899 269.427 392.105 269.383C392.233 269.395 397.657 269.328 405.609 272.99C398.512 272.71 380.377 272.8 381.253 280.566C382.247 289.169 402.999 276.685 407.414 273.857C410.242 275.327 413.408 277.273 416.675 279.864C417.764 280.727 418.901 281.659 420.007 282.715C413.419 282.482 394.029 282.645 395.098 290.684C396.25 299.174 416.255 286.811 421.065 283.702C424.929 287.301 429.056 291.941 433.226 297.982C427.275 297.809 406.594 297.661 407.68 305.891C408.881 314.45 429.233 301.738 433.727 298.854C436.593 303.059 439.433 307.896 442.216 313.49C436.546 312.708 416.102 310.55 416.284 319.014C416.531 327.738 437.981 316.906 442.637 314.418C444.805 318.812 446.978 323.714 449.058 328.989C443.959 328.006 422.931 324.523 422.797 333.212C422.521 342.205 445.104 331.796 449.383 329.781C451.252 334.592 452.998 339.899 454.779 345.59C449.553 344.595 428.78 341.136 428.518 349.813C428.274 358.681 450.54 348.498 455.025 346.438C456.122 350.161 457.188 354.007 458.192 358.102C458.275 358.554 458.754 358.726 459.215 358.705C459.294 358.649 459.343 358.717 459.422 358.661C459.914 358.516 460.243 357.975 460.112 357.455C459.186 353.304 458.072 349.39 456.975 345.667Z" fill="url(#paint0_linear_1077_3249)"/>
<path d="M329.125 0.0688477C272.495 0.0688477 232.045 30.6613 231.66 94.7324H290.601C288.29 67.7956 303.121 52.4994 329.125 52.4994C347.231 52.4994 365.818 60.388 365.818 84.9197C365.818 105.796 339.237 112.434 319.686 131.77C308.322 142.93 299.461 158.419 299.461 183.239V252.312H358.884V183.239C358.884 151.203 424.855 139.659 424.855 84.9197C424.855 26.5246 376.99 0.0688477 329.125 0.0688477ZM370.248 312.247C370.056 310.996 369.863 309.746 369.671 308.495C366.3 292.525 353.491 279.826 337.407 276.844C336.444 276.652 335.385 276.459 334.422 276.363C329.317 275.786 324.405 276.171 319.783 277.325C311.211 279.442 303.699 284.444 298.306 291.178C290.89 300.414 287.423 313.016 290.408 326.581C293.683 341.3 305.336 352.941 320.072 356.211C348.675 362.561 373.33 339.665 370.248 312.247Z" fill="var(--logo-gradient-bottom)"/>
<path d="M541.677 368.05H5.69383C2.88764 368.05 0.621094 365.786 0.621094 362.983V361.258C0.621094 358.454 2.88764 356.19 5.69383 356.19H541.785C544.591 356.19 546.858 358.454 546.858 361.258V362.983C546.75 365.786 544.484 368.05 541.677 368.05Z" fill="#2488FF" fill-opacity="0.15"/>
<path d="M177.845 111.78C177.629 111.78 177.413 111.78 177.305 111.673C176.874 111.457 176.442 111.133 176.226 110.702L171.369 98.3039C171.045 97.4414 171.477 96.3633 172.341 96.0398C173.204 95.7164 174.283 96.1476 174.607 97.0101L178.709 107.468L200.187 95.5008C201.05 95.0695 202.129 95.2851 202.561 96.1476C202.993 97.0101 202.777 98.0883 201.914 98.5195L178.709 111.457C178.385 111.78 178.061 111.78 177.845 111.78Z" fill="white"/>
<path d="M488.36 152.028L491.706 161.192L500.988 164.642L491.706 167.984L488.36 177.148L485.014 167.984L475.84 164.642L485.014 161.192L488.36 152.028Z" fill="#2488FF" fill-opacity="0.15"/>
<path d="M412.77 187.746L416.224 196.91L425.398 200.252L416.224 203.594L412.77 212.758L409.424 203.594L400.25 200.252L409.424 196.91L412.77 187.746Z" fill="#2488FF" fill-opacity="0.15"/>
<path d="M240.336 243.312C239.257 242.665 238.07 242.449 236.774 242.665C226.629 244.498 175.686 253.769 174.283 259.699C172.772 266.168 240.768 256.573 242.279 253.338C243.574 250.319 246.272 246.977 240.336 243.312Z" fill="#E8B28E"/>
<path d="M265.378 194.688C267.537 196.629 268.184 199.647 267.429 202.451C263.867 214.849 251.239 256.249 241.849 254.308C230.84 252.044 244.224 215.927 249.512 206.008C253.829 197.599 260.197 190.052 265.378 194.688Z" fill="#F2BC97"/>
<path d="M268.72 205.038C267.641 208.596 266.13 211.615 266.13 211.615C266.13 211.615 252.855 251.182 245.731 254.309C238.608 257.435 207.632 260.346 207.632 260.346L207.416 258.621L205.797 248.055L236.341 240.94C236.341 240.94 244.22 214.957 247.35 207.518C251.452 197.815 258.251 191.885 265.375 192.64C271.095 193.179 270.339 199.756 268.72 205.038Z" fill="url(#paint2_linear_1077_3249)"/>
<path opacity="0.3" d="M268.723 205.038C267.643 208.596 266.132 211.615 266.132 211.615C266.132 211.615 252.857 251.182 245.733 254.308C238.61 257.435 207.634 260.346 207.634 260.346L207.418 258.621H207.526C213.894 256.033 220.478 254.201 227.277 252.907C234.293 251.505 236.883 249.133 240.769 238.137C246.057 223.474 254.907 198.893 254.907 198.893L268.723 205.038Z" fill="url(#paint3_linear_1077_3249)"/>
<path d="M273.902 335.922C275.305 342.391 270.664 348.86 263.865 350.046C258.468 351.016 251.021 351.555 241.631 350.692C218.102 348.428 190.04 351.878 185.723 343.577C181.514 335.275 195.868 326.974 218.966 325.033C239.796 323.2 264.297 315.653 268.614 321.152C270.772 323.955 272.607 330.316 273.902 335.922Z" fill="#F2BC97"/>
<path d="M247.567 326.003C244.005 331.61 236.126 332.903 230.406 328.914C225.873 325.788 220.26 320.936 214.216 313.605C199.214 295.385 176.872 278.027 179.786 269.079C182.7 260.238 198.89 263.688 216.591 278.566C232.672 292.043 255.122 304.872 254.258 311.772C253.827 315.33 250.589 321.152 247.567 326.003Z" fill="#F2BC97"/>
<path d="M296.463 168.166C296.355 175.929 288.584 188.651 288.584 188.651L290.85 196.737L288.8 204.283L276.28 210.321L272.934 197.815L272.826 195.227L272.61 189.729C272.61 189.729 265.271 188.543 264.623 182.613C263.976 176.684 257.716 155.013 274.769 152.426C291.822 149.838 296.571 160.404 296.463 168.166Z" fill="#F2BC97"/>
<path opacity="0.5" d="M277.79 189.513C277.574 189.621 273.797 190.915 272.825 195.227L272.609 189.729C272.609 189.729 273.581 189.729 277.79 189.513Z" fill="#F2BC97"/>
<path d="M263.003 166.98C263.003 166.98 280.595 164.177 281.782 169.029C282.97 173.988 281.459 177.869 282.754 178.301C284.049 178.732 287.287 170.862 289.877 173.665C292.36 176.468 287.287 182.829 289.122 187.572C289.769 189.297 298.188 173.557 298.08 165.902C297.972 158.248 292.899 149.623 280.811 149.191C276.17 148.976 263.003 144.555 259.765 147.143C254.26 151.348 261.168 163.638 263.003 166.98Z" fill="#360871"/>
<path d="M186.48 263.472C207.743 267.461 131.651 337.862 111.253 350.8C90.8537 363.737 113.195 335.706 138.127 307.136C163.275 278.458 178.17 261.855 186.48 263.472Z" fill="#F2BC97"/>
<path d="M103.914 344.547L112.98 334.628L120.535 344.654L111.901 351.986" fill="#F2BC97"/>
<path d="M103.913 344.547C103.913 344.547 98.84 345.409 89.3421 343.792C79.8442 342.175 79.4125 339.911 77.6856 341.312C75.9587 342.714 99.1638 364.6 99.1638 364.6L111.792 352.094C111.9 351.986 104.236 344.223 103.913 344.547Z" fill="#500BA9"/>
<path d="M191.873 336.568C206.012 352.956 103.046 359.317 79.0858 356.837C55.1252 354.25 89.5551 347.673 126.899 340.773C164.243 333.981 186.261 330.208 191.873 336.568Z" fill="#F2BC97"/>
<path d="M80.3836 359.532L93.3352 358.993L91.0687 346.487L78.9805 348.751" fill="#F2BC97"/>
<path d="M78.9794 348.751C78.9794 348.751 74.5543 346.163 68.1864 338.94C61.8185 331.717 63.0057 329.668 60.8471 329.668C58.6885 329.668 62.6819 361.257 62.6819 361.257L80.3825 359.64C80.3825 359.532 79.4112 348.751 78.9794 348.751Z" fill="#500BA9"/>
<path d="M272.605 314.575L224.36 335.706L214.43 324.925L186.476 294.414C186.476 294.414 168.344 312.203 157.011 321.583C155.5 322.877 153.773 324.17 152.047 325.464C139.203 335.383 123.769 344.87 123.769 344.87L110.277 335.599C110.277 335.599 165.106 261.424 187.34 260.669C201.155 260.238 231.16 286.76 231.16 286.76L266.021 310.047L266.885 310.586L272.605 314.575Z" fill="url(#paint4_linear_1077_3249)"/>
<path opacity="0.5" d="M267.101 310.478L266.777 310.694L235.261 329.453L214.431 324.925L186.477 294.414C186.477 294.414 168.344 312.203 157.012 321.583C155.501 322.877 153.774 324.17 152.047 325.464C170.935 308.538 183.994 288.7 187.448 288.054C191.873 287.299 202.99 302.177 215.294 309.616C227.598 317.055 236.125 305.627 236.125 305.627L265.914 310.155L267.101 310.478Z" fill="#C14C5F"/>
<path d="M247.135 358.239C217.778 360.826 188.313 355.975 187.342 355.975C183.348 355.975 168.885 358.347 143.953 360.503C103.695 364.061 86.5343 361.689 86.5343 361.689V361.258L86.4264 357.808L85.8867 346.811L255.23 314.467L271.851 327.081L280.809 333.873C280.809 333.873 281.781 355.112 247.135 358.239Z" fill="url(#paint5_linear_1077_3249)"/>
<path opacity="0.5" d="M247.136 358.239C217.779 360.827 188.314 355.975 187.342 355.975C183.349 355.975 168.886 358.347 143.954 360.503C103.696 364.061 86.5352 361.689 86.5352 361.689V361.258C148.271 361.689 179.14 351.339 187.99 350.153C196.948 348.967 238.178 352.849 251.885 348.752C265.592 344.655 261.059 330.963 261.059 330.963L271.852 326.974L280.81 333.766C280.81 333.874 281.782 355.113 247.136 358.239Z" fill="#C14C5F"/>
<path d="M294.733 259.052L294.625 259.268C291.926 268.863 289.336 276.949 288.365 280.399C287.285 283.849 286.53 287.406 285.882 291.072C284.911 296.57 284.371 302.177 283.724 307.567C282.968 313.281 282.86 318.672 282.644 320.613C282.536 322.014 282.752 333.658 280.81 333.766C276.384 333.873 270.448 333.442 266.131 332.687C263.001 332.148 259.871 331.286 257.604 329.237C253.071 325.033 253.179 317.27 248.538 313.281C245.192 310.478 240.551 310.37 236.45 308.861C232.457 307.352 229.219 304.549 226.089 301.745C225.333 301.099 224.578 300.452 223.93 299.805C223.067 298.835 221.664 297.325 221.772 296.031L221.879 295.492C221.987 295.169 222.527 294.845 222.743 294.63C223.93 293.336 224.902 291.935 225.765 290.533C228.139 286.867 229.866 282.878 231.269 278.674C232.241 275.871 233.104 272.852 233.86 270.049C234.399 267.785 235.047 265.521 235.587 263.149C235.587 263.041 235.587 263.041 235.695 262.933C235.802 262.502 235.91 262.071 236.018 261.639L236.774 258.728C237.206 257.111 237.637 255.494 238.069 253.877C238.609 251.829 239.148 249.672 239.688 247.624C239.796 247.193 239.904 246.869 239.904 246.546C240.336 244.821 240.875 243.096 241.307 241.371C242.278 237.705 243.25 234.147 244.113 230.805C247.675 217.329 251.237 206.44 252.856 202.343C254.474 198.138 256.741 195.443 259.439 194.041C259.655 193.934 259.871 193.826 259.979 193.826C261.922 192.855 263.972 192.424 265.807 192.316C266.239 192.209 266.779 192.208 267.102 192.208C268.074 192.208 269.045 192.209 269.801 192.316C271.528 192.424 272.607 192.748 272.607 192.748C272.607 192.748 271.851 198.893 277.464 200.402C283.832 202.127 290.739 196.629 290.739 196.629C290.739 196.629 293.977 197.815 297.863 199.648C299.805 200.51 309.087 204.93 310.059 209.566C311.786 217.436 300.669 238.244 294.733 259.052Z" fill="#360871"/>
<path opacity="0.3" d="M302.179 235.549C302.179 235.549 288.364 266.923 279.19 269.834C271.743 272.205 243.788 271.882 231.484 278.782C232.456 275.979 233.319 272.96 234.075 270.157C234.614 267.893 235.262 265.629 235.802 263.257C235.802 263.149 235.802 263.149 235.91 263.041L272.498 256.141L302.179 235.549Z" fill="#500BA9"/>
<path opacity="0.3" d="M285.881 291.18C284.909 296.679 284.37 302.285 283.722 307.675C282.967 313.389 282.859 318.78 282.643 320.721C282.535 322.122 282.751 333.766 280.808 333.874C276.383 333.982 270.447 333.55 266.13 332.796C263 332.257 259.87 331.394 257.603 329.346C252.962 325.141 253.178 317.378 248.429 313.389C245.083 310.586 240.442 310.479 236.341 308.969C232.347 307.46 229.109 304.657 225.979 301.854C225.224 301.207 224.468 300.668 223.821 299.913C222.957 298.943 221.554 297.433 221.662 296.14L221.77 295.6C221.986 295.6 271.202 316.732 285.881 291.18Z" fill="#500BA9"/>
<path d="M308.981 208.165C311.032 210.644 311.787 213.663 310.384 216.574C304.232 229.404 282.862 271.989 273.148 268.108C261.599 263.58 282.754 226.924 290.309 217.113C296.569 208.919 304.124 202.235 308.981 208.165Z" fill="#F2BC97"/>
<path d="M148.92 226.708L162.519 262.178C162.519 262.178 199.539 265.089 199.755 265.413L185.185 227.355C185.185 227.355 148.38 226.6 148.92 226.708Z" fill="#E9E9E9"/>
<path d="M226.846 263.688L199.755 265.197L198.784 262.933L197.812 260.346L226.63 258.729L226.738 261.208L226.846 263.688Z" fill="url(#paint6_linear_1077_3249)"/>
<path d="M185.184 227.355L186.587 227.571L200.834 265.197H199.754L185.184 227.355Z" fill="url(#paint7_linear_1077_3249)"/>
<path d="M171.722 242.11C170.491 242.561 169.958 244.195 170.532 245.761C171.107 247.326 172.57 248.23 173.802 247.779C175.033 247.329 175.566 245.694 174.992 244.129C174.418 242.563 172.954 241.659 171.722 242.11Z" fill="url(#paint8_linear_1077_3249)"/>
<path d="M280.055 263.472C279.732 264.334 279.3 265.089 278.76 265.736C278.221 266.383 277.681 267.03 277.249 267.677C276.17 269.186 257.282 268.431 239.365 266.491C237.099 266.275 234.832 265.952 232.674 265.736C232.458 265.736 232.242 265.628 232.026 265.628C226.198 264.873 220.801 264.011 216.484 263.041L216.052 262.933C214.002 262.502 212.491 262.07 211.304 261.639C209.037 260.777 208.497 260.022 209.037 258.944C210.224 256.464 219.29 254.955 232.458 254.739C232.89 254.739 233.321 254.739 233.753 254.739C235.912 254.739 238.07 254.739 240.337 254.631C254.692 254.631 269.154 255.17 274.227 255.386C275.522 255.494 276.71 256.033 277.681 256.895C277.789 257.003 277.897 257.111 278.113 257.327C280.379 259.914 280.595 261.855 280.055 263.472Z" fill="#F2BC97"/>
<path opacity="0.5" d="M307.577 226.277C307.577 226.277 285.883 266.923 277.033 268.54C268.183 270.157 232.458 266.599 232.458 266.599L232.566 265.737C232.35 265.737 232.134 265.629 231.918 265.629C226.09 264.874 220.693 264.012 216.376 263.041L215.944 262.934C213.894 262.502 212.383 262.071 211.195 261.64C212.383 261.748 221.557 262.61 232.674 263.58C250.698 265.09 274.011 266.707 277.249 265.198C278.112 264.766 278.976 264.227 279.947 263.365C285.02 259.16 291.388 249.241 300.562 233.932C309.952 218.299 309.736 209.243 309.52 207.087C315.133 212.478 307.577 226.277 307.577 226.277Z" fill="#F2BC97"/>
<path d="M307.577 226.277C307.577 226.277 285.883 266.923 277.032 268.54C268.182 270.157 232.457 266.599 232.457 266.599L232.565 265.737L232.781 263.688L233.644 254.848L233.752 253.554C233.752 253.554 268.29 253.554 268.938 253.446C269.585 253.338 282.645 226.385 287.07 220.024C290.632 214.634 297.539 205.578 304.447 205.47C305.85 205.47 307.253 205.793 308.548 206.656C308.98 206.871 309.304 207.195 309.627 207.518C309.951 207.842 310.275 208.165 310.383 208.488C314.376 213.987 307.577 226.277 307.577 226.277Z" fill="url(#paint9_linear_1077_3249)"/>
<path d="M215.08 258.728C215.08 258.728 212.922 254.308 208.389 253.661C203.856 253.122 200.834 254.847 199.754 256.249C198.783 257.435 198.459 260.022 199.646 259.591C200.834 259.16 204.071 257.111 205.367 259.052C208.389 263.149 212.814 260.992 212.814 260.992L215.08 258.728Z" fill="#F2BC97"/>
<path opacity="0.3" d="M310.058 207.734C309.95 207.518 309.734 207.41 309.626 207.194C309.302 206.871 308.978 206.655 308.547 206.332C307.144 205.469 305.741 205.146 304.445 205.146C310.382 206.871 308.115 215.819 308.115 215.819C306.82 220.132 304.337 225.954 299.912 233.393C297.322 237.705 291.817 241.802 289.659 245.36C284.37 254.308 283.615 260.346 279.945 263.364C278.974 264.227 278.11 264.766 277.247 265.197C274.009 266.707 250.696 265.089 232.671 263.58L232.456 265.629L232.348 266.491C232.348 266.491 268.073 270.049 276.923 268.432C285.773 266.814 307.467 226.169 307.467 226.169C307.467 226.169 314.699 213.34 310.058 207.734Z" fill="url(#paint10_linear_1077_3249)"/>
<path opacity="0.5" d="M332.402 266.599C333.589 266.707 334.668 266.922 335.747 267.138C329.379 267.461 322.688 267.677 315.996 267.677C321.177 266.383 326.681 265.952 332.402 266.599Z" fill="#DCE8EF"/>
<defs>
<linearGradient id="paint0_linear_1077_3249" x1="449.892" y1="283.878" x2="403.932" y2="316.511" gradientUnits="userSpaceOnUse">
<stop stop-color="#E32E74"/>
<stop offset="1" stop-color="#E86029"/>
</linearGradient>
<linearGradient id="paint1_linear_1077_3249" x1="424.855" y1="178.674" x2="231.66" y2="178.674" gradientUnits="userSpaceOnUse">
<stop stop-color="#6D19FC"/>
<stop offset="1" stop-color="#7D1FA5"/>
</linearGradient>
<linearGradient id="paint2_linear_1077_3249" x1="269.89" y1="226.461" x2="205.797" y2="226.461" gradientUnits="userSpaceOnUse">
<stop stop-color="#E32E74"/>
<stop offset="1" stop-color="#E86029"/>
</linearGradient>
<linearGradient id="paint3_linear_1077_3249" x1="268.723" y1="229.619" x2="207.418" y2="229.619" gradientUnits="userSpaceOnUse">
<stop stop-color="#6D19FC"/>
<stop offset="1" stop-color="#7D1FA5"/>
</linearGradient>
<linearGradient id="paint4_linear_1077_3249" x1="272.605" y1="302.767" x2="110.277" y2="302.767" gradientUnits="userSpaceOnUse">
<stop stop-color="#E32E74"/>
<stop offset="1" stop-color="#E86029"/>
</linearGradient>
<linearGradient id="paint5_linear_1077_3249" x1="280.812" y1="338.465" x2="85.8867" y2="338.465" gradientUnits="userSpaceOnUse">
<stop stop-color="#E32E74"/>
<stop offset="1" stop-color="#E86029"/>
</linearGradient>
<linearGradient id="paint6_linear_1077_3249" x1="226.846" y1="261.963" x2="197.813" y2="261.963" gradientUnits="userSpaceOnUse">
<stop stop-color="#E32E74"/>
<stop offset="1" stop-color="#E86029"/>
</linearGradient>
<linearGradient id="paint7_linear_1077_3249" x1="200.834" y1="246.276" x2="185.184" y2="246.276" gradientUnits="userSpaceOnUse">
<stop stop-color="#6D19FC"/>
<stop offset="1" stop-color="#7D1FA5"/>
</linearGradient>
<linearGradient id="paint8_linear_1077_3249" x1="170.532" y1="245.761" x2="174.99" y2="244.126" gradientUnits="userSpaceOnUse">
<stop stop-color="#E32E74"/>
<stop offset="1" stop-color="#E86029"/>
</linearGradient>
<linearGradient id="paint9_linear_1077_3249" x1="311.64" y1="237.215" x2="232.457" y2="237.215" gradientUnits="userSpaceOnUse">
<stop stop-color="#E32E74"/>
<stop offset="1" stop-color="#E86029"/>
</linearGradient>
<linearGradient id="paint10_linear_1077_3249" x1="311.612" y1="237" x2="232.348" y2="237" gradientUnits="userSpaceOnUse">
<stop stop-color="#6D19FC"/>
<stop offset="1" stop-color="#7D1FA5"/>
</linearGradient>
</defs>
</svg>
