<svg width="18" height="16" viewBox="0 0 18 16" fill="none" xmlns="http://www.w3.org/2000/svg">
<path d="M3.263 15.8979L3.24597 15.915L3.22809 15.8979H1.69998C1.47592 15.8977 1.26112 15.8086 1.10277 15.65C0.944416 15.4915 0.855469 15.2766 0.855469 15.0526V1.41958C0.857027 1.196 0.946475 0.982015 1.10449 0.82384C1.26251 0.665666 1.4764 0.576002 1.69998 0.574219H17.0373C17.5039 0.574219 17.8818 0.953055 17.8818 1.41958V15.0526C17.8803 15.2762 17.7908 15.4902 17.6328 15.6483C17.4748 15.8065 17.2609 15.8962 17.0373 15.8979H3.263ZM16.1792 10.79V2.27686H2.55811V14.1953L11.0713 5.68213L16.1792 10.79ZM16.1792 13.1976L11.0713 8.08966L4.96563 14.1953H16.1792V13.1976ZM5.96338 7.38477C5.51181 7.38477 5.07874 7.20538 4.75943 6.88607C4.44013 6.56677 4.26074 6.1337 4.26074 5.68213C4.26074 5.23056 4.44013 4.79749 4.75943 4.47818C5.07874 4.15888 5.51181 3.97949 5.96338 3.97949C6.41495 3.97949 6.84802 4.15888 7.16732 4.47818C7.48663 4.79749 7.66602 5.23056 7.66602 5.68213C7.66602 6.1337 7.48663 6.56677 7.16732 6.88607C6.84802 7.20538 6.41495 7.38477 5.96338 7.38477Z" fill="#19242B"/>
</svg>
