<svg width="18" height="16" viewBox="0 0 18 16" fill="none" xmlns="http://www.w3.org/2000/svg">
<path d="M4.66112 7.10848H10.9377V8.67761H4.66112V11.0313L0.738281 7.89304L4.66112 4.75477V7.10848ZM3.87655 12.6004H6.00116C6.90709 13.3994 8.02431 13.92 9.21877 14.0997C10.4132 14.2794 11.6342 14.1107 12.7351 13.6137C13.836 13.1167 14.7702 12.3126 15.4254 11.2979C16.0807 10.2832 16.4292 9.10095 16.4292 7.89304C16.4292 6.68514 16.0807 5.50289 15.4254 4.48816C14.7702 3.47344 13.836 2.66934 12.7351 2.17237C11.6342 1.67539 10.4132 1.50664 9.21877 1.68637C8.02431 1.86611 6.90709 2.38668 6.00116 3.18564H3.87655C4.60672 2.21056 5.55422 1.41919 6.64378 0.874411C7.73334 0.329631 8.93493 0.0464503 10.1531 0.0473655C14.4863 0.0473655 17.9988 3.55988 17.9988 7.89304C17.9988 12.2262 14.4863 15.7387 10.1531 15.7387C8.93493 15.7396 7.73334 15.4565 6.64378 14.9117C5.55422 14.3669 4.60672 13.5755 3.87655 12.6004Z" fill="#19242B"/>
</svg>
