<svg width="17" height="18" viewBox="0 0 17 18" fill="none" xmlns="http://www.w3.org/2000/svg">
<path d="M1.04357 9.67707H6.01235C6.35683 10.7622 7.36193 11.5561 8.55957 11.5561C9.75721 11.5561 10.7623 10.7622 11.1068 9.67707H16.0756C16.5204 9.67707 16.8809 9.31663 16.8809 8.87179C16.8809 8.42694 16.5204 8.0665 16.0756 8.0665H11.1068C10.7623 6.98135 9.75721 6.1875 8.55957 6.1875C7.36193 6.1875 6.35683 6.98135 6.01235 8.0665H1.04357C0.598722 8.0665 0.238281 8.42694 0.238281 8.87179C0.238281 9.31663 0.598722 9.67707 1.04357 9.67707ZM8.55957 7.79807C9.15174 7.79807 9.63329 8.27962 9.63329 8.87179C9.63329 9.46396 9.15174 9.9455 8.55957 9.9455C7.9674 9.9455 7.48586 9.46396 7.48586 8.87179C7.48586 8.27962 7.9674 7.79807 8.55957 7.79807Z" fill="#19242B"/>
<path d="M1.04357 4.03987H2.52278C2.86726 5.12502 3.87236 5.91887 5.07 5.91887C6.26763 5.91887 7.27274 5.12502 7.61722 4.03987H16.0756C16.5204 4.03987 16.8809 3.67943 16.8809 3.23458C16.8809 2.78973 16.5204 2.42929 16.0756 2.42929H7.61722C7.27274 1.34414 6.26763 0.550293 5.07 0.550293C3.87236 0.550293 2.86726 1.34414 2.52278 2.42929H1.04357C0.598722 2.42929 0.238281 2.78973 0.238281 3.23458C0.238281 3.67943 0.598722 4.03987 1.04357 4.03987ZM5.07 2.16087C5.66217 2.16087 6.14371 2.64241 6.14371 3.23458C6.14371 3.82675 5.66217 4.30829 5.07 4.30829C4.47783 4.30829 3.99628 3.82675 3.99628 3.23458C3.99628 2.64241 4.47783 2.16087 5.07 2.16087Z" fill="#19242B"/>
<path d="M1.04357 15.3138H9.50192C9.8464 16.3989 10.8515 17.1928 12.0491 17.1928C13.2468 17.1928 14.2519 16.3989 14.5964 15.3138H16.0756C16.5204 15.3138 16.8809 14.9534 16.8809 14.5085C16.8809 14.0637 16.5204 13.7032 16.0756 13.7032H14.5964C14.2519 12.6181 13.2468 11.8242 12.0491 11.8242C10.8515 11.8242 9.8464 12.6181 9.50192 13.7032H1.04357C0.598722 13.7032 0.238281 14.0637 0.238281 14.5085C0.238281 14.9534 0.598722 15.3138 1.04357 15.3138ZM12.0491 13.4348C12.6413 13.4348 13.1229 13.9163 13.1229 14.5085C13.1229 15.1007 12.6413 15.5822 12.0491 15.5822C11.457 15.5822 10.9754 15.1007 10.9754 14.5085C10.9754 13.9163 11.457 13.4348 12.0491 13.4348Z" fill="#19242B"/>
</svg>
