<svg width="18" height="15" viewBox="0 0 18 15" fill="none" xmlns="http://www.w3.org/2000/svg">
<path d="M17.0159 3.28238H17.8239V11.3626H17.0159V13.7867C17.0159 14.001 16.9308 14.2065 16.7792 14.358C16.6277 14.5096 16.4222 14.5947 16.2079 14.5947H1.66349C1.44919 14.5947 1.24367 14.5096 1.09213 14.358C0.940599 14.2065 0.855469 14.001 0.855469 13.7867V0.858315C0.855469 0.644014 0.940599 0.438491 1.09213 0.286957C1.24367 0.135424 1.44919 0.050293 1.66349 0.050293H16.2079C16.4222 0.050293 16.6277 0.135424 16.7792 0.286957C16.9308 0.438491 17.0159 0.644014 17.0159 0.858315V3.28238ZM15.3999 11.3626H10.5517C9.48023 11.3626 8.45261 10.9369 7.69494 10.1793C6.93728 9.42161 6.51162 8.39399 6.51162 7.32249C6.51162 6.25099 6.93728 5.22337 7.69494 4.4657C8.45261 3.70803 9.48023 3.28238 10.5517 3.28238H15.3999V1.66634H2.47151V12.9786H15.3999V11.3626ZM16.2079 9.74656V4.89842H10.5517C9.90883 4.89842 9.29226 5.15382 8.83766 5.60842C8.38306 6.06302 8.12767 6.67959 8.12767 7.32249C8.12767 7.96539 8.38306 8.58196 8.83766 9.03656C9.29226 9.49116 9.90883 9.74656 10.5517 9.74656H16.2079ZM10.5517 6.51447H12.9758V8.13051H10.5517V6.51447Z" fill="#19242B"/>
</svg>
