<svg width="18" height="20" viewBox="0 0 18 20" fill="none" xmlns="http://www.w3.org/2000/svg">
<path d="M12.5965 9.51771C13.1523 9.07188 13.5987 8.51801 13.905 7.89429C14.2112 7.27057 14.37 6.59182 14.3704 5.90483V5.26005C14.3346 4.01984 13.7855 2.84173 12.84 1.97643C11.8944 1.11112 10.6271 0.626953 9.30771 0.626953C7.9883 0.626953 6.72098 1.11112 5.77546 1.97643C4.82993 2.84173 4.28084 4.01984 4.24506 5.26005V5.90483C4.24612 6.59206 4.40559 7.2709 4.71246 7.8946C5.01934 8.51831 5.46633 9.07206 6.02267 9.51771C4.50465 9.9165 3.1668 10.7708 2.21285 11.9506C1.25889 13.1304 0.741087 14.571 0.738281 16.0531V18.3729C0.738281 18.5588 0.816807 18.7371 0.956583 18.8685C1.09636 19 1.28594 19.0738 1.48361 19.0738H17.1355C17.3332 19.0738 17.5228 19 17.6626 18.8685C17.8023 18.7371 17.8809 18.5588 17.8809 18.3729V16.0531C17.8781 14.571 17.3603 13.1304 16.4063 11.9506C15.4523 10.7708 14.1145 9.9165 12.5965 9.51771ZM5.73572 5.26005C5.76567 4.38802 6.15513 3.56112 6.82174 2.95422C7.48835 2.34731 8.37984 2.00799 9.30771 2.00799C10.2356 2.00799 11.1271 2.34731 11.7937 2.95422C12.4603 3.56112 12.8497 4.38802 12.8797 5.26005V5.90483C12.8497 6.77687 12.4603 7.60377 11.7937 8.21067C11.1271 8.81757 10.2356 9.1569 9.30771 9.1569C8.37984 9.1569 7.48835 8.81757 6.82174 8.21067C6.15513 7.60377 5.76567 6.77687 5.73572 5.90483V5.26005ZM16.3902 17.6721H2.22894V16.0531C2.23091 14.6243 2.83541 13.2545 3.90986 12.2442C4.98431 11.2339 6.44102 10.6655 7.96052 10.6636H10.6623C12.1812 10.6664 13.637 11.2352 14.7106 12.2454C15.7842 13.2557 16.3882 14.6249 16.3902 16.0531V17.6721Z" fill="#19242B"/>
</svg>
