<svg width="21" height="18" viewBox="0 0 21 18" fill="none" xmlns="http://www.w3.org/2000/svg">
<path d="M19.9485 14.7859C19.9485 15.229 19.7725 15.654 19.4592 15.9673C19.1459 16.2806 18.7209 16.4567 18.2778 16.4567H3.24106C2.79795 16.4567 2.37299 16.2806 2.05966 15.9673C1.74634 15.654 1.57031 15.229 1.57031 14.7859V5.59679C1.57031 5.15368 1.74634 4.72872 2.05966 4.41539C2.37299 4.10207 2.79795 3.92604 3.24106 3.92604H6.58256L8.2533 1.41992H13.2655L14.9363 3.92604H18.2778C18.7209 3.92604 19.1459 4.10207 19.4592 4.41539C19.7725 4.72872 19.9485 5.15368 19.9485 5.59679V14.7859Z" stroke="#19242B" stroke-width="2" stroke-linecap="round" stroke-linejoin="round"/>
<path d="M10.7595 13.1151C12.6049 13.1151 14.101 11.6191 14.101 9.77362C14.101 7.92817 12.6049 6.43213 10.7595 6.43213C8.91401 6.43213 7.41797 7.92817 7.41797 9.77362C7.41797 11.6191 8.91401 13.1151 10.7595 13.1151Z" stroke="#19242B" stroke-width="2" stroke-linecap="round" stroke-linejoin="round"/>
</svg>
