<svg width="250" height="42" viewBox="0 0 250 42" fill="none" xmlns="http://www.w3.org/2000/svg">
<path d="M3.89557 36.672C6.04703 36.672 7.79114 34.9279 7.79114 32.7764C7.79114 30.625 6.04703 28.8809 3.89557 28.8809C1.74411 28.8809 0 30.625 0 32.7764C0 34.9279 1.74411 36.672 3.89557 36.672Z" fill="url(#paint0_linear_2351_346)"/>
<path d="M54.1924 12.4884C56.3439 12.4884 58.088 10.7443 58.088 8.59284C58.088 6.44137 56.3439 4.69727 54.1924 4.69727C52.041 4.69727 50.2969 6.44137 50.2969 8.59284C50.2969 10.7443 52.041 12.4884 54.1924 12.4884Z" fill="url(#paint1_linear_2351_346)"/>
<path d="M8.97686 14.0467C7.63678 12.7378 5.45527 12.769 4.14635 14.1402C2.83744 15.4803 2.86861 17.6618 4.23985 18.9707L21.5985 35.7684C22.253 36.4229 23.1256 36.7346 23.967 36.7346C24.8708 36.7346 25.7434 36.3917 26.429 35.7061C27.7379 34.366 27.7068 32.1845 26.3355 30.8756L8.97686 14.0467Z" fill="url(#paint2_linear_2351_346)"/>
<path d="M36.678 5.66588C35.338 4.35697 33.1564 4.38814 31.8475 5.75938C30.5386 7.09946 30.5698 9.28098 31.941 10.5899L49.2997 27.3876C49.9541 28.042 50.8267 28.3537 51.6682 28.3537C52.572 28.3537 53.4446 28.0109 54.1302 27.3253C55.4391 25.9852 55.4079 23.8037 54.0367 22.4947L36.678 5.66588Z" fill="url(#paint3_linear_2351_346)"/>
<path d="M13.5569 0.958851C12.2169 -0.350061 10.0353 -0.31889 8.72643 1.05235C7.41752 2.39243 7.44868 4.57395 8.81993 5.88286L44.5034 40.4132C45.1578 41.0676 46.0304 41.3793 46.8719 41.3793C47.7756 41.3793 48.6482 41.0365 49.3339 40.3509C50.6428 39.0108 50.6116 36.8293 49.2404 35.5204L13.5569 0.958851Z" fill="url(#paint4_linear_2351_346)"/>
<path d="M96.7051 4.9664V22.3533L75.3906 3.42188V35.8569H82.5396V18.47L103.898 37.4014V4.9664H96.7051Z" fill="white"/>
<path d="M115.369 11.3651H129.182V4.9664H115.369V11.3651ZM115.369 23.4566H128.741V17.455H115.369V23.4566ZM110.427 4.9664V35.8569H117.576V4.9664H110.427Z" fill="white"/>
<path d="M130.394 11.6299H138.866V35.8569H146.324V11.6299H154.841V4.9664H130.394V11.6299Z" fill="white"/>
<path d="M166.163 20.1027L174.591 32.9885L183.064 20.1027L184.917 35.8569H192.772L187.786 3.42188L174.591 22.2651L161.441 3.42188L156.454 35.8569H164.309L166.163 20.1027Z" fill="white"/>
<path d="M202.023 29.5023C202.023 29.0022 202.141 28.5903 202.376 28.2667C202.611 27.9136 202.965 27.6489 203.435 27.4723C203.906 27.2958 204.538 27.2076 205.333 27.2076C206.362 27.2076 207.333 27.3547 208.245 27.6489C209.187 27.9136 210.01 28.3108 210.717 28.8403V25.8837C210.364 25.5012 209.834 25.1335 209.128 24.7805C208.422 24.4274 207.569 24.1332 206.568 23.8979C205.598 23.6625 204.494 23.5448 203.259 23.5448C200.729 23.5448 198.772 24.1185 197.389 25.2659C196.007 26.3838 195.315 27.9136 195.315 29.8553C195.315 31.238 195.639 32.4148 196.286 33.3857C196.963 34.3565 197.845 35.092 198.934 35.5921C200.052 36.0628 201.258 36.2982 202.553 36.2982C203.847 36.2982 205.053 36.0776 206.171 35.6363C207.289 35.1655 208.201 34.4889 208.907 33.6063C209.613 32.6943 209.966 31.5911 209.966 30.2966L209.26 27.6489C209.26 28.5903 209.054 29.3846 208.642 30.0318C208.231 30.6791 207.701 31.1645 207.054 31.4881C206.407 31.8117 205.701 31.9735 204.936 31.9735C204.406 31.9735 203.921 31.8853 203.479 31.7087C203.038 31.5028 202.685 31.2233 202.42 30.8703C202.155 30.4878 202.023 30.0318 202.023 29.5023ZM199.066 21.7797C199.361 21.6031 199.831 21.3825 200.479 21.1177C201.126 20.8235 201.876 20.5735 202.729 20.3675C203.612 20.1616 204.509 20.0586 205.421 20.0586C206.039 20.0586 206.583 20.1175 207.054 20.2351C207.554 20.3528 207.966 20.544 208.289 20.8088C208.613 21.0736 208.848 21.3972 208.995 21.7797C209.172 22.1327 209.26 22.5593 209.26 23.0594V35.8569H215.659V21.559C215.659 20.1469 215.247 18.9554 214.423 17.9845C213.6 17.0137 212.482 16.2782 211.07 15.7781C209.657 15.2485 208.054 14.9837 206.259 14.9837C204.347 14.9837 202.582 15.2338 200.964 15.7339C199.346 16.2341 197.963 16.7636 196.816 17.3226L199.066 21.7797Z" fill="white"/>
<path d="M227.224 15.5574H220.648V35.8569H227.224V15.5574ZM233.093 22.4416L235.961 16.7489C235.608 16.2194 235.093 15.8075 234.417 15.5133C233.74 15.2191 233.034 15.072 232.299 15.072C231.181 15.072 230.107 15.4398 229.077 16.1752C228.047 16.9107 227.209 17.911 226.562 19.176C225.944 20.4411 225.635 21.8826 225.635 23.5007L227.224 25.8396C227.224 24.8687 227.356 24.045 227.621 23.3683C227.886 22.6917 228.268 22.1768 228.768 21.8238C229.268 21.4708 229.842 21.2942 230.489 21.2942C231.078 21.2942 231.563 21.3972 231.945 21.6031C232.357 21.8091 232.74 22.0886 233.093 22.4416Z" fill="white"/>
<path d="M236.408 15.5574V21.0736H250V15.5574H236.408ZM239.983 8.49674V35.8569H246.382V8.49674H239.983Z" fill="white"/>
<defs>
<linearGradient id="paint0_linear_2351_346" x1="7.79114" y1="32.7764" x2="-7.88667e-08" y2="32.7764" gradientUnits="userSpaceOnUse">
<stop stop-color="#5509D6"/>
<stop offset="1" stop-color="#5E0086"/>
</linearGradient>
<linearGradient id="paint1_linear_2351_346" x1="58.088" y1="8.59284" x2="50.2969" y2="8.59284" gradientUnits="userSpaceOnUse">
<stop stop-color="#5509D6"/>
<stop offset="1" stop-color="#5E0086"/>
</linearGradient>
<linearGradient id="paint2_linear_2351_346" x1="27.3879" y1="24.9112" x2="3.1875" y2="24.9112" gradientUnits="userSpaceOnUse">
<stop stop-color="#5509D6"/>
<stop offset="1" stop-color="#5E0086"/>
</linearGradient>
<linearGradient id="paint3_linear_2351_346" x1="55.089" y1="16.5304" x2="30.8887" y2="16.5304" gradientUnits="userSpaceOnUse">
<stop stop-color="#5509D6"/>
<stop offset="1" stop-color="#5E0086"/>
</linearGradient>
<linearGradient id="paint4_linear_2351_346" x1="50.2927" y1="20.6896" x2="7.76758" y2="20.6896" gradientUnits="userSpaceOnUse">
<stop stop-color="#5509D6"/>
<stop offset="1" stop-color="#5E0086"/>
</linearGradient>
</defs>
</svg>
