<svg width="201" height="34" viewBox="0 0 201 34" fill="none" xmlns="http://www.w3.org/2000/svg">
<path d="M3.11648 29.3384C4.83766 29.3384 6.23296 27.9431 6.23296 26.2219C6.23296 24.5008 4.83766 23.1055 3.11648 23.1055C1.3953 23.1055 0 24.5008 0 26.2219C0 27.9431 1.3953 29.3384 3.11648 29.3384Z" fill="#6D9891"/>
<path d="M43.3548 9.99077C45.0759 9.99077 46.4712 8.59548 46.4712 6.87429C46.4712 5.15311 45.0759 3.75781 43.3548 3.75781C41.6336 3.75781 40.2383 5.15311 40.2383 6.87429C40.2383 8.59548 41.6336 9.99077 43.3548 9.99077Z" fill="#6D9891"/>
<path d="M7.1823 11.2378C6.11023 10.1907 4.36501 10.2156 3.31787 11.3126C2.27073 12.3847 2.29566 14.1299 3.39267 15.177L17.2797 28.6153C17.8033 29.1388 18.5014 29.3882 19.1745 29.3882C19.8975 29.3882 20.5956 29.1139 21.1441 28.5654C22.1913 27.4933 22.1663 25.7481 21.0693 24.701L7.1823 11.2378Z" fill="#6D9891"/>
<path d="M29.3425 4.53271C28.2704 3.48557 26.5252 3.51051 25.478 4.60751C24.4309 5.67958 24.4558 7.42481 25.5528 8.47195L39.4399 21.9102C39.9634 22.4338 40.6615 22.6831 41.3347 22.6831C42.0577 22.6831 42.7558 22.4088 43.3043 21.8603C44.3514 20.7883 44.3265 19.043 43.2295 17.9959L29.3425 4.53271Z" fill="#6D9891"/>
<path d="M10.8464 0.767086C9.7743 -0.28005 8.02907 -0.255114 6.98193 0.841887C5.9348 1.91396 5.95973 3.65918 7.05673 4.70632L35.6037 32.3308C36.1272 32.8544 36.8253 33.1037 37.4985 33.1037C38.2215 33.1037 38.9196 32.8294 39.4681 32.2809C40.5152 31.2089 40.4903 29.4636 39.3933 28.4165L10.8464 0.767086Z" fill="#6D9891"/>
<path d="M77.3642 3.97391V17.8836L60.3125 2.73828V28.6865H66.0317V14.7768L83.1187 29.9221V3.97391H77.3642Z" fill="#19242B"/>
<path d="M92.2957 9.09295H103.346V3.97391H92.2957V9.09295ZM92.2957 18.7662H102.993V13.9649H92.2957V18.7662ZM88.3417 3.97391V28.6865H94.0609V3.97391H88.3417Z" fill="#19242B"/>
<path d="M104.315 9.30477H111.094V28.6865H117.06V9.30477H123.873V3.97391H104.315V9.30477Z" fill="#19242B"/>
<path d="M132.931 16.0831L139.674 26.3918L146.452 16.0831L147.935 28.6865H154.219L150.229 2.73828L139.674 17.813L129.153 2.73828L125.164 28.6865H131.448L132.931 16.0831Z" fill="#19242B"/>
<path d="M161.619 23.6028C161.619 23.2027 161.713 22.8731 161.902 22.6143C162.09 22.3318 162.372 22.12 162.749 21.9788C163.125 21.8376 163.632 21.767 164.267 21.767C165.091 21.767 165.867 21.8846 166.597 22.12C167.35 22.3318 168.009 22.6496 168.574 23.0732V20.7079C168.292 20.4019 167.868 20.1077 167.303 19.8253C166.738 19.5428 166.056 19.3075 165.255 19.1192C164.479 18.9309 163.596 18.8368 162.608 18.8368C160.584 18.8368 159.018 19.2957 157.912 20.2136C156.806 21.108 156.253 22.3318 156.253 23.8852C156.253 24.9914 156.512 25.9328 157.03 26.7095C157.571 27.4862 158.277 28.0746 159.148 28.4747C160.042 28.8512 161.007 29.0395 162.043 29.0395C163.078 29.0395 164.043 28.863 164.938 28.51C165.832 28.1334 166.562 27.5921 167.127 26.886C167.691 26.1564 167.974 25.2738 167.974 24.2382L167.409 22.12C167.409 22.8732 167.244 23.5086 166.915 24.0264C166.585 24.5442 166.162 24.9325 165.644 25.1914C165.126 25.4503 164.561 25.5798 163.949 25.5798C163.526 25.5798 163.137 25.5092 162.784 25.3679C162.431 25.2032 162.149 24.9796 161.937 24.6972C161.725 24.3912 161.619 24.0264 161.619 23.6028ZM159.254 17.4246C159.489 17.2834 159.866 17.1069 160.384 16.8951C160.901 16.6597 161.502 16.4596 162.184 16.2949C162.89 16.1301 163.608 16.0478 164.338 16.0478C164.832 16.0478 165.267 16.0948 165.644 16.189C166.044 16.2831 166.373 16.4361 166.632 16.6479C166.891 16.8598 167.079 17.1186 167.197 17.4246C167.338 17.707 167.409 18.0483 167.409 18.4484V28.6865H172.528V17.2481C172.528 16.1184 172.199 15.1652 171.54 14.3885C170.881 13.6118 169.986 13.0234 168.856 12.6233C167.727 12.1997 166.444 11.9878 165.008 11.9878C163.479 11.9878 162.066 12.1879 160.772 12.588C159.477 12.9881 158.371 13.4118 157.453 13.8589L159.254 17.4246Z" fill="#19242B"/>
<path d="M181.78 12.4468H176.52V28.6865H181.78V12.4468ZM186.475 17.9542L188.77 13.4C188.488 12.9763 188.076 12.6468 187.534 12.4115C186.993 12.1761 186.428 12.0585 185.84 12.0585C184.945 12.0585 184.086 12.3527 183.263 12.941C182.439 13.5294 181.768 14.3297 181.25 15.3417C180.756 16.3537 180.509 17.507 180.509 18.8015L181.78 20.6726C181.78 19.8959 181.886 19.2369 182.098 18.6955C182.309 18.1542 182.615 17.7423 183.015 17.4599C183.416 17.1775 183.874 17.0363 184.392 17.0363C184.863 17.0363 185.251 17.1187 185.557 17.2834C185.887 17.4482 186.193 17.6717 186.475 17.9542Z" fill="#19242B"/>
<path d="M189.128 12.4468V16.8598H200.001V12.4468H189.128ZM191.987 6.79821V28.6865H197.106V6.79821H191.987Z" fill="#19242B"/>
</svg>
