<svg width="201" height="34" viewBox="0 0 201 34" fill="none" xmlns="http://www.w3.org/2000/svg">
    <path d="M3.85085 29.837C5.57204 29.837 6.96733 28.4417 6.96733 26.7205C6.96733 24.9993 5.57204 23.604 3.85085 23.604C2.12967 23.604 0.734375 24.9993 0.734375 26.7205C0.734375 28.4417 2.12967 29.837 3.85085 29.837Z" fill="url(#paint0_linear_1098_5258)"/>
    <path d="M44.0891 10.4893C45.8103 10.4893 47.2056 9.09401 47.2056 7.37283C47.2056 5.65164 45.8103 4.25635 44.0891 4.25635C42.368 4.25635 40.9727 5.65164 40.9727 7.37283C40.9727 9.09401 42.368 10.4893 44.0891 10.4893Z" fill="url(#paint1_linear_1098_5258)"/>
    <path d="M7.91668 11.7363C6.84461 10.6892 5.09938 10.7141 4.05224 11.8111C3.00511 12.8832 3.03004 14.6284 4.12704 15.6756L18.0141 29.1138C18.5376 29.6374 19.2357 29.8867 19.9089 29.8867C20.6319 29.8867 21.33 29.6124 21.8785 29.0639C22.9256 27.9919 22.9007 26.2467 21.8037 25.1995L7.91668 11.7363Z" fill="url(#paint2_linear_1098_5258)"/>
    <path d="M30.0768 5.03027C29.0048 3.98313 27.2595 4.00807 26.2124 5.10507C25.1653 6.17714 25.1902 7.92237 26.2872 8.9695L40.1742 22.4078C40.6978 22.9313 41.3959 23.1806 42.069 23.1806C42.7921 23.1806 43.4902 22.9064 44.0387 22.3579C45.0858 21.2858 45.0609 19.5406 43.9639 18.4935L30.0768 5.03027Z" fill="url(#paint3_linear_1098_5258)"/>
    <path d="M11.5807 1.26513C10.5087 0.217996 8.76344 0.242933 7.71631 1.33993C6.66917 2.412 6.6941 4.15723 7.7911 5.20437L36.3381 32.8288C36.8616 33.3524 37.5597 33.6017 38.2329 33.6017C38.9559 33.6017 39.654 33.3275 40.2025 32.779C41.2496 31.7069 41.2247 29.9617 40.1277 28.9145L11.5807 1.26513Z" fill="url(#paint4_linear_1098_5258)"/>
    <path d="M78.0986 4.47244V18.3821L61.0469 3.23682V29.185H66.7661V15.2754L83.8531 30.4207V4.47244H78.0986Z" fill="#19242B" class="logo-color"/>
    <path d="M93.0301 9.59148H104.08V4.47244H93.0301V9.59148ZM93.0301 19.2647H103.727V14.4634H93.0301V19.2647ZM89.0761 4.47244V29.185H94.7953V4.47244H89.0761Z" fill="#19242B" class="logo-color"/>
    <path d="M105.05 9.8033H111.828V29.185H117.794V9.8033H124.608V4.47244H105.05V9.8033Z" fill="#19242B" class="logo-color"/>
    <path d="M133.665 16.5816L140.408 26.8903L147.186 16.5816L148.669 29.185H154.953L150.964 3.23682L140.408 18.3115L129.887 3.23682L125.898 29.185H132.182L133.665 16.5816Z" fill="#19242B" class="logo-color"/>
    <path d="M162.354 24.1013C162.354 23.7012 162.448 23.3717 162.636 23.1128C162.824 22.8304 163.107 22.6185 163.483 22.4773C163.86 22.3361 164.366 22.2655 165.001 22.2655C165.825 22.2655 166.602 22.3832 167.331 22.6185C168.085 22.8304 168.744 23.1481 169.308 23.5717V21.2064C169.026 20.9004 168.602 20.6062 168.037 20.3238C167.473 20.0414 166.79 19.806 165.99 19.6177C165.213 19.4294 164.331 19.3353 163.342 19.3353C161.318 19.3353 159.753 19.7942 158.647 20.7121C157.54 21.6065 156.987 22.8304 156.987 24.3837C156.987 25.4899 157.246 26.4313 157.764 27.208C158.305 27.9847 159.011 28.5731 159.882 28.9732C160.777 29.3498 161.742 29.5381 162.777 29.5381C163.813 29.5381 164.778 29.3615 165.672 29.0085C166.566 28.6319 167.296 28.0906 167.861 27.3845C168.426 26.6549 168.708 25.7723 168.708 24.7368L168.143 22.6185C168.143 23.3717 167.979 24.0072 167.649 24.5249C167.32 25.0427 166.896 25.4311 166.378 25.69C165.86 25.9489 165.296 26.0783 164.684 26.0783C164.26 26.0783 163.872 26.0077 163.519 25.8665C163.166 25.7017 162.883 25.4781 162.671 25.1957C162.459 24.8897 162.354 24.5249 162.354 24.1013ZM159.988 17.9232C160.224 17.7819 160.6 17.6054 161.118 17.3936C161.636 17.1582 162.236 16.9582 162.918 16.7934C163.624 16.6287 164.342 16.5463 165.072 16.5463C165.566 16.5463 166.002 16.5934 166.378 16.6875C166.778 16.7817 167.108 16.9346 167.367 17.1465C167.626 17.3583 167.814 17.6172 167.932 17.9232C168.073 18.2056 168.143 18.5468 168.143 18.947V29.185H173.262V17.7466C173.262 16.6169 172.933 15.6637 172.274 14.887C171.615 14.1104 170.721 13.522 169.591 13.1218C168.461 12.6982 167.178 12.4864 165.743 12.4864C164.213 12.4864 162.801 12.6864 161.506 13.0865C160.212 13.4867 159.106 13.9103 158.188 14.3575L159.988 17.9232Z" fill="#19242B" class="logo-color"/>
    <path d="M182.514 12.9453H177.254V29.185H182.514V12.9453ZM187.21 18.4527L189.504 13.8985C189.222 13.4749 188.81 13.1454 188.269 12.91C187.727 12.6747 187.162 12.557 186.574 12.557C185.68 12.557 184.821 12.8512 183.997 13.4396C183.173 14.028 182.502 14.8282 181.985 15.8402C181.49 16.8523 181.243 18.0055 181.243 19.3L182.514 21.1711C182.514 20.3944 182.62 19.7354 182.832 19.1941C183.044 18.6528 183.35 18.2409 183.75 17.9585C184.15 17.676 184.609 17.5348 185.127 17.5348C185.597 17.5348 185.986 17.6172 186.292 17.7819C186.621 17.9467 186.927 18.1703 187.21 18.4527Z" fill="#19242B" class="logo-color"/>
    <path d="M189.862 12.9453V17.3583H200.736V12.9453H189.862ZM192.722 7.29674V29.185H197.841V7.29674H192.722Z" fill="#19242B" class="logo-color"/>
<defs>
    <linearGradient id="paint0_linear_1098_5258" x1="6.96733" y1="26.7205" x2="0.734375" y2="26.7205" gradientUnits="userSpaceOnUse">
        <stop stop-color="var(--logo-gradient-bottom)"/>
        <stop offset="1" stop-color="var(--logo-gradient-top)"/>
    </linearGradient>
    <linearGradient id="paint1_linear_1098_5258" x1="47.2056" y1="7.37283" x2="40.9727" y2="7.37283" gradientUnits="userSpaceOnUse">
        <stop stop-color="var(--logo-gradient-bottom)"/>
        <stop offset="1" stop-color="var(--logo-gradient-top)"/>
    </linearGradient>
    <linearGradient id="paint2_linear_1098_5258" x1="22.6456" y1="20.428" x2="3.28516" y2="20.428" gradientUnits="userSpaceOnUse">
        <stop stop-color="var(--logo-gradient-bottom)"/>
        <stop offset="1" stop-color="var(--logo-gradient-top)"/>
    </linearGradient>
    <linearGradient id="paint3_linear_1098_5258" x1="44.8057" y1="13.7219" x2="25.4453" y2="13.7219" gradientUnits="userSpaceOnUse">
        <stop stop-color="var(--logo-gradient-bottom)"/>
        <stop offset="1" stop-color="var(--logo-gradient-top)"/>
    </linearGradient>
    <linearGradient id="paint4_linear_1098_5258" x1="40.9696" y1="17.0499" x2="6.94922" y2="17.0499" gradientUnits="userSpaceOnUse">
        <stop stop-color="var(--logo-gradient-bottom)"/>
        <stop offset="1" stop-color="var(--logo-gradient-top)"/>
    </linearGradient>
</defs>
</svg>

