<svg width="171" height="29" viewBox="0 0 171 29" fill="none" xmlns="http://www.w3.org/2000/svg">
<path d="M2.66453 25.3193C4.13503 25.3193 5.3271 24.1272 5.3271 22.6567C5.3271 21.1862 4.13503 19.9941 2.66453 19.9941C1.19403 19.9941 0.00195312 21.1862 0.00195312 22.6567C0.00195312 24.1272 1.19403 25.3193 2.66453 25.3193Z" fill="white"/>
<path d="M37.0434 8.78999C38.5139 8.78999 39.706 7.59792 39.706 6.12742C39.706 4.65692 38.5139 3.46484 37.0434 3.46484C35.5729 3.46484 34.3809 4.65692 34.3809 6.12742C34.3809 7.59792 35.5729 8.78999 37.0434 8.78999Z" fill="white"/>
<path d="M6.1386 9.85556C5.22267 8.96093 3.73163 8.98224 2.83701 9.91946C1.94238 10.8354 1.96368 12.3264 2.90091 13.2211L14.7653 24.7021C15.2127 25.1494 15.8091 25.3624 16.3842 25.3624C17.0019 25.3624 17.5983 25.1281 18.0669 24.6595C18.9616 23.7436 18.9403 22.2525 18.003 21.3579L6.1386 9.85556Z" fill="white"/>
<path d="M25.0722 4.12607C24.1563 3.23144 22.6652 3.25275 21.7706 4.18997C20.876 5.1059 20.8973 6.59694 21.8345 7.49157L33.6989 18.9726C34.1463 19.4199 34.7427 19.6329 35.3178 19.6329C35.9355 19.6329 36.5319 19.3986 37.0005 18.93C37.8952 18.0141 37.8739 16.523 36.9366 15.6284L25.0722 4.12607Z" fill="white"/>
<path d="M9.26751 0.909269C8.35158 0.0146441 6.86054 0.0359486 5.96591 0.973175C5.07129 1.8891 5.09259 3.38014 6.02981 4.27477L30.419 27.8758C30.8663 28.3231 31.4627 28.5362 32.0379 28.5362C32.6556 28.5362 33.252 28.3019 33.7206 27.8332C34.6152 26.9173 34.5939 25.4263 33.6567 24.5316L9.26751 0.909269Z" fill="white"/>
<path d="M66.0975 3.64941V15.5332L51.5293 2.59375V24.7627H56.4155V12.8789L71.0138 25.8184V3.64941H66.0975Z" fill="white"/>
<path d="M78.8543 8.02288H88.2949V3.64941H78.8543V8.02288ZM78.8543 16.2872H87.9933V12.1852H78.8543V16.2872ZM75.4761 3.64941V24.7627H80.3624V3.64941H75.4761Z" fill="white"/>
<path d="M89.1232 8.20385H94.9143V24.7627H100.012V8.20385H105.833V3.64941H89.1232V8.20385Z" fill="white"/>
<path d="M113.571 13.9949L119.332 22.8022L125.123 13.9949L126.39 24.7627H131.758L128.35 2.59375L119.332 15.4729L110.343 2.59375L106.935 24.7627H112.304L113.571 13.9949Z" fill="white"/>
<path d="M138.081 20.4194C138.081 20.0776 138.161 19.796 138.322 19.5749C138.483 19.3336 138.725 19.1526 139.046 19.0319C139.368 18.9113 139.8 18.851 140.343 18.851C141.047 18.851 141.711 18.9515 142.334 19.1526C142.977 19.3336 143.54 19.605 144.023 19.967V17.9461C143.782 17.6847 143.42 17.4334 142.937 17.1921C142.455 16.9508 141.871 16.7497 141.188 16.5888C140.524 16.428 139.77 16.3475 138.926 16.3475C137.196 16.3475 135.859 16.7397 134.914 17.5239C133.969 18.288 133.496 19.3336 133.496 20.6607C133.496 21.6058 133.718 22.4101 134.16 23.0736C134.622 23.7372 135.226 24.2399 135.97 24.5817C136.734 24.9035 137.558 25.0643 138.443 25.0643C139.328 25.0643 140.152 24.9135 140.916 24.6119C141.68 24.2902 142.304 23.8277 142.786 23.2244C143.269 22.6011 143.51 21.8471 143.51 20.9623L143.028 19.1526C143.028 19.796 142.887 20.339 142.605 20.7813C142.324 21.2237 141.962 21.5555 141.519 21.7767C141.077 21.9979 140.595 22.1085 140.072 22.1085C139.71 22.1085 139.378 22.0481 139.076 21.9275C138.775 21.7867 138.533 21.5957 138.353 21.3544C138.172 21.093 138.081 20.7813 138.081 20.4194ZM136.06 15.1411C136.261 15.0204 136.583 14.8696 137.025 14.6886C137.468 14.4876 137.981 14.3166 138.564 14.1759C139.167 14.0351 139.78 13.9648 140.404 13.9648C140.826 13.9648 141.198 14.005 141.519 14.0854C141.861 14.1658 142.143 14.2965 142.364 14.4775C142.585 14.6585 142.746 14.8797 142.847 15.1411C142.967 15.3824 143.028 15.6739 143.028 16.0158V24.7627H147.401V14.9903C147.401 14.0251 147.12 13.2107 146.557 12.5472C145.994 11.8836 145.229 11.3809 144.264 11.0391C143.299 10.6771 142.203 10.4962 140.977 10.4962C139.67 10.4962 138.463 10.6671 137.357 11.0089C136.251 11.3507 135.306 11.7127 134.522 12.0947L136.06 15.1411Z" fill="white"/>
<path d="M155.305 10.8883H150.811V24.7627H155.305V10.8883ZM159.317 15.5935L161.277 11.7026C161.036 11.3407 160.684 11.0592 160.222 10.8581C159.759 10.657 159.277 10.5565 158.774 10.5565C158.01 10.5565 157.276 10.8078 156.572 11.3105C155.868 11.8132 155.295 12.4969 154.853 13.3615C154.431 14.2262 154.22 15.2115 154.22 16.3174L155.305 17.916C155.305 17.2524 155.396 16.6894 155.577 16.2269C155.758 15.7644 156.019 15.4125 156.361 15.1712C156.703 14.9299 157.095 14.8093 157.537 14.8093C157.939 14.8093 158.271 14.8797 158.533 15.0204C158.814 15.1612 159.076 15.3522 159.317 15.5935Z" fill="white"/>
<path d="M161.583 10.8883V14.6585H170.873V10.8883H161.583ZM164.026 6.06236V24.7627H168.4V6.06236H164.026Z" fill="white"/>
</svg>
