<svg width="48" height="40" viewBox="0 0 48 40" fill="none" xmlns="http://www.w3.org/2000/svg">
<path d="M47.1039 15.32L38.7288 1.04872C38.3447 0.394439 37.5048 0.172542 36.848 0.551911L31.8286 3.44982L27.3073 1.78684C25.8933 1.26675 24.3339 1.40048 23.0291 2.15387L16.1635 6.11774L10.077 2.60356C9.75339 2.41673 9.36804 2.36915 9.00855 2.4714C8.64924 2.57374 8.34672 2.81726 8.17011 3.14666L0.335985 17.7527C-0.0163252 18.4098 0.216616 19.2281 0.862334 19.6008L3.971 21.3957L2.41202 24.0959C1.27014 26.0736 1.95019 28.6115 3.92793 29.7534C4.84589 30.2833 5.88432 30.4203 6.84802 30.2177C7.15441 31.1535 7.79221 31.9845 8.71017 32.5144C9.62813 33.0444 10.6666 33.1813 11.6303 32.9787C11.9366 33.9146 12.5744 34.7455 13.4924 35.2755C14.4104 35.8054 15.4488 35.9424 16.4125 35.7398C16.719 36.6757 17.3568 37.5066 18.2747 38.0365C20.2525 39.1784 22.7903 38.4984 23.9322 36.5206L24.1106 36.2117L29.2913 39.2028C31.2691 40.3447 33.807 39.6646 34.9488 37.6869C35.2183 37.2201 35.3851 36.722 35.4585 36.2186C37.2201 36.6825 39.1474 35.9369 40.101 34.2852C40.4293 33.7164 40.6062 33.1012 40.6457 32.4864C42.1527 32.5654 43.6512 31.8173 44.4561 30.4232C45.2609 29.0291 45.1596 27.3573 44.3376 26.0918C44.8504 25.7501 45.2947 25.2893 45.6231 24.7205C46.7334 22.7974 46.1207 20.3452 44.2678 19.1612L46.7904 17.0845C47.3146 16.6532 47.4474 15.9051 47.1039 15.32ZM24.4096 4.54504C25.0027 4.20249 25.7113 4.14183 26.3543 4.37827L31.4823 6.26444C31.867 6.4059 32.2943 6.36918 32.6492 6.16431L37.0413 3.62846L44.1264 15.7015L41.7185 17.6839L25.1369 8.11039C24.7097 7.86373 24.1835 7.86373 23.7563 8.11039L16.1247 12.5165C15.4896 12.9007 14.5966 12.6615 14.2389 12.0112C13.8547 11.3763 14.0939 10.4831 14.7442 10.1254L24.4096 4.54504ZM5.30855 27.3622C4.6493 26.9816 4.42262 26.1357 4.80328 25.4764L7.10416 21.4912C7.48481 20.8319 8.33071 20.6053 8.98996 20.9859C9.6492 21.3666 9.87589 22.2125 9.49523 22.8717L7.19435 26.8569C6.81379 27.5162 5.9678 27.7429 5.30855 27.3622ZM10.0908 30.1233C9.43154 29.7426 9.20486 28.8967 9.58552 28.2375L12.8067 22.6581C13.1874 21.9988 14.0333 21.7722 14.6925 22.1528C15.3518 22.5335 15.5785 23.3794 15.1978 24.0386L11.9766 29.618C11.596 30.2772 10.75 30.5039 10.0908 30.1233ZM14.873 32.8843C14.2138 32.5037 13.9871 31.6578 14.3678 30.9985L16.6686 27.0133C17.0493 26.3541 17.8952 26.1274 18.5544 26.508C19.2137 26.8887 19.4404 27.7346 19.0597 28.3938L16.7588 32.379C16.3783 33.0383 15.5324 33.265 14.873 32.8843ZM19.6554 35.6455C18.9961 35.2648 18.7693 34.4188 19.15 33.7596L20.5305 31.3684C20.9112 30.7092 21.7572 30.4825 22.4164 30.8631C23.0757 31.2438 23.3023 32.0897 22.9217 32.7489L21.5412 35.1401C21.1606 35.7994 20.3147 36.0261 19.6554 35.6455ZM42.0652 29.0427C41.6845 29.7019 40.8386 29.9286 40.1794 29.548L33.006 25.4064C32.3457 25.0252 31.5014 25.2514 31.1202 25.9116C30.739 26.5719 30.9652 27.4162 31.6254 27.7974L37.2047 31.0187C37.864 31.3993 38.0906 32.2452 37.71 32.9045C37.3293 33.5637 36.4834 33.7904 35.8242 33.4097L30.2449 30.1885C29.5847 29.8073 28.7403 30.0335 28.3591 30.6938C27.9779 31.354 28.2041 32.1984 28.8644 32.5796L32.0526 34.4203C32.7118 34.8009 32.9385 35.6468 32.5578 36.3061C32.1772 36.9653 31.3313 37.192 30.6721 36.8114L25.4771 33.812C26.3783 31.8877 25.6706 29.5535 23.797 28.4718C23.2283 28.1434 22.6131 27.9664 21.9981 27.9269C22.0772 26.42 21.3291 24.9214 19.935 24.1165C19.3663 23.7881 18.7511 23.6112 18.1362 23.5717C18.2153 22.0648 17.4671 20.5662 16.0731 19.7614C14.679 18.9565 13.0073 19.0579 11.7417 19.8798C11.4001 19.367 10.9393 18.9228 10.3705 18.5944C8.77864 17.6753 6.82455 17.9373 5.52695 19.1055L3.40168 17.8787L9.93 5.70698L13.4025 7.71188L13.3636 7.73433C12.4057 8.28746 11.7204 9.18057 11.4339 10.2491C11.1477 11.3176 11.2946 12.4337 11.8477 13.3917C12.4009 14.3497 13.294 15.035 14.3625 15.3214C15.431 15.6076 16.5471 15.4608 17.5051 14.9076L24.4465 10.9001L42.7267 21.4543C43.386 21.8349 43.6127 22.6808 43.232 23.3401C42.8513 23.9993 42.0054 24.226 41.3462 23.8454L35.7669 20.6241C35.1067 20.2429 34.2623 20.4691 33.8811 21.1294C33.4999 21.7897 33.7261 22.634 34.3864 23.0152L41.5598 27.1568C42.2191 27.5374 42.4458 28.3834 42.0652 29.0427Z" fill="white"/>
</svg>
