<svg width="36" height="36" viewBox="0 0 36 36" fill="none" xmlns="http://www.w3.org/2000/svg">
<path d="M28.5179 27.6753C27.7171 27.6753 26.9342 27.9143 26.2683 28.362C25.6024 28.8098 25.0834 29.4462 24.777 30.1907C24.4705 30.9353 24.3903 31.7546 24.5466 32.5451C24.7028 33.3355 25.0884 34.0616 25.6547 34.6314C26.221 35.2013 26.9425 35.5894 27.728 35.7466C28.5134 35.9039 29.3276 35.8232 30.0675 35.5148C30.8073 35.2063 31.4397 34.6841 31.8847 34.014C32.3296 33.3439 32.5671 32.556 32.5671 31.7501C32.5659 30.6698 32.1389 29.634 31.3798 28.8701C30.6207 28.1062 29.5915 27.6765 28.5179 27.6753ZM28.5179 33.1084C28.251 33.1084 27.99 33.0287 27.768 32.8795C27.5461 32.7302 27.3731 32.5181 27.2709 32.2699C27.1688 32.0217 27.142 31.7486 27.1941 31.4851C27.2462 31.2216 27.3748 30.9796 27.5635 30.7897C27.7523 30.5997 27.9928 30.4703 28.2546 30.4179C28.5164 30.3655 28.7878 30.3924 29.0344 30.4952C29.2811 30.598 29.4919 30.7721 29.6402 30.9955C29.7885 31.2189 29.8676 31.4815 29.8676 31.7501C29.8672 32.1102 29.7248 32.4554 29.4718 32.71C29.2188 32.9647 28.8757 33.1079 28.5179 33.1084Z" fill="white"/>
<path d="M20.4255 27.6752H9.62773C9.26976 27.6752 8.92646 27.5321 8.67334 27.2774C8.42021 27.0227 8.27801 26.6772 8.27801 26.317C8.27801 25.9567 8.42021 25.6112 8.67334 25.3565C8.92646 25.1018 9.26976 24.9587 9.62773 24.9587H31.2233C31.5427 24.9587 31.8518 24.8446 32.0955 24.6369C32.3393 24.4291 32.5019 24.1411 32.5545 23.824L35.2539 7.52471C35.2862 7.33011 35.276 7.13078 35.2239 6.94058C35.1719 6.75038 35.0793 6.57386 34.9526 6.42332C34.8259 6.27277 34.6681 6.1518 34.4903 6.06883C34.3124 5.98586 34.1187 5.94287 33.9227 5.94286H12.3272C11.9692 5.94286 11.6259 6.08596 11.3728 6.34069C11.1197 6.59541 10.9775 6.9409 10.9775 7.30113C10.9775 7.66137 11.1197 8.00685 11.3728 8.26158C11.6259 8.5163 11.9692 8.65941 12.3272 8.65941H32.3291L30.0798 22.2421H13.2623L5.49286 1.39115C5.3963 1.13227 5.22356 0.909194 4.9977 0.751707C4.77185 0.59422 4.50363 0.509817 4.22885 0.509766H1.52941C1.17144 0.509766 0.828133 0.652869 0.575011 0.907595C0.32189 1.16232 0.179688 1.5078 0.179688 1.86804C0.179688 2.22828 0.32189 2.57376 0.575011 2.82848C0.828133 3.08321 1.17144 3.22631 1.52941 3.22631H3.29363L10.3797 22.2421H9.62773C8.64426 22.2351 7.69209 22.5897 6.9501 23.2393C6.20811 23.8889 5.72739 24.7889 5.59826 25.77C5.46912 26.7512 5.70047 27.746 6.24882 28.5676C6.79717 29.3892 7.62478 29.9811 8.57616 30.2319C8.32245 30.8454 8.22143 31.512 8.28188 32.1738C8.34233 32.8355 8.56243 33.4724 8.92305 34.0291C9.28367 34.5858 9.7739 35.0455 10.3512 35.3682C10.9284 35.6909 11.5753 35.8669 12.2355 35.8808C12.8957 35.8948 13.5493 35.7464 14.1395 35.4484C14.7297 35.1504 15.2388 34.7119 15.6223 34.1709C16.0059 33.63 16.2524 33.003 16.3405 32.3444C16.4285 31.6858 16.3554 31.0155 16.1276 30.3918H20.4255C20.7835 30.3918 21.1268 30.2487 21.3799 29.994C21.633 29.7392 21.7752 29.3937 21.7752 29.0335C21.7752 28.6733 21.633 28.3278 21.3799 28.0731C21.1268 27.8183 20.7835 27.6752 20.4255 27.6752ZM13.6769 31.7501C13.6769 32.0187 13.5977 32.2813 13.4494 32.5047C13.3011 32.728 13.0903 32.9021 12.8437 33.0049C12.5971 33.1077 12.3257 33.1346 12.0639 33.0822C11.802 33.0298 11.5615 32.9005 11.3728 32.7105C11.184 32.5205 11.0555 32.2785 11.0034 32.015C10.9513 31.7516 10.978 31.4785 11.0802 31.2303C11.1824 30.9821 11.3553 30.7699 11.5773 30.6207C11.7993 30.4714 12.0602 30.3918 12.3272 30.3918C12.685 30.3923 13.028 30.5355 13.2811 30.7901C13.5341 31.0448 13.6764 31.39 13.6769 31.7501Z" fill="white"/>
</svg>
