<svg width="37" height="39" viewBox="0 0 37 39" fill="none" xmlns="http://www.w3.org/2000/svg">
<path d="M35.147 19.5526C34.9945 19.2407 34.9945 18.883 35.147 18.5712L36.56 15.6806C37.3467 14.0711 36.7234 12.1528 35.1409 11.3132L32.2987 9.80516C31.9921 9.64252 31.7819 9.35305 31.7219 9.01126L31.166 5.84212C30.8565 4.07763 29.2243 2.89193 27.4509 3.14285L24.2652 3.59348C23.9213 3.64202 23.5813 3.53147 23.3319 3.29017L21.0194 1.05315C19.7318 -0.192485 17.7147 -0.192559 16.4272 1.05315L14.1147 3.2904C13.8652 3.53177 13.5252 3.6421 13.1814 3.5937L9.9957 3.14307C8.22166 2.89201 6.59007 4.07785 6.28054 5.84234L5.72469 9.01134C5.66468 9.3532 5.45446 9.64259 5.1479 9.80531L2.30574 11.3133C0.72328 12.1529 0.0999442 14.0714 0.886662 15.6808L2.2996 18.5714C2.45203 18.8833 2.45203 19.241 2.2996 19.5528L0.886588 22.4433C0.0998702 24.0528 0.723206 25.9711 2.30567 26.8107L5.14783 28.3188C5.45446 28.4814 5.66468 28.7709 5.72469 29.1127L6.28054 32.2818C6.56232 33.8881 7.93966 35.0146 9.52264 35.0144C9.67855 35.0144 9.83675 35.0035 9.99577 34.981L13.1815 34.5304C13.525 34.4816 13.8653 34.5924 14.1148 34.8337L16.4272 37.0707C17.0711 37.6936 17.8971 38.005 18.7233 38.0049C19.5493 38.0048 20.3757 37.6934 21.0194 37.0707L23.3319 34.8337C23.5814 34.5924 23.9214 34.4821 24.2652 34.5304L27.4509 34.981C29.2251 35.232 30.8565 34.0462 31.166 32.2817L31.722 29.1127C31.782 28.7709 31.9922 28.4815 32.2987 28.3188L35.1409 26.8107C36.7234 25.9712 37.3467 24.0527 36.56 22.4432L35.147 19.5526ZM34.1167 24.8804L31.2746 26.3885C30.3684 26.8693 29.7469 27.7246 29.5697 28.7351L29.0139 31.9041C28.9092 32.5011 28.3572 32.9021 27.7569 32.8174L24.5712 32.3667C23.5552 32.2228 22.5499 32.5498 21.8126 33.2631L19.5001 35.5C19.0646 35.9213 18.3821 35.9213 17.9464 35.5L15.634 33.263C15.0108 32.6601 14.1961 32.3334 13.3456 32.3334C13.1898 32.3334 13.0327 32.3444 12.8754 32.3667L9.68965 32.8173C9.08985 32.9021 8.53747 32.501 8.4327 31.9041L7.87677 28.7349C7.69948 27.7244 7.07806 26.8691 6.17184 26.3884L3.32969 24.8804C2.79426 24.5963 2.58337 23.9473 2.84953 23.4027L4.26255 20.5121C4.71303 19.5904 4.71303 18.5333 4.26255 17.6117L2.84953 14.721C2.58337 14.1765 2.79426 13.5275 3.32969 13.2434L6.17184 11.7354C7.07799 11.2545 7.69948 10.3993 7.8767 9.38879L8.43255 6.21972C8.53732 5.62273 9.08918 5.22167 9.6895 5.30647L12.8752 5.7571C13.8908 5.90087 14.8965 5.57404 15.6338 4.8608L17.9463 2.62377C18.3819 2.20244 19.0643 2.20244 19.5 2.62377L21.8124 4.8608C22.5498 5.57411 23.5553 5.90087 24.5711 5.7571L27.7568 5.30647C28.3567 5.2216 28.909 5.62273 29.0137 6.21972L29.5696 9.38886C29.7469 10.3993 30.3683 11.2547 31.2745 11.7354L34.1167 13.2434C34.6521 13.5275 34.863 14.1765 34.5968 14.721L33.1838 17.6116C32.7333 18.5332 32.7333 19.5904 33.1838 20.512L34.5968 23.4026C34.8631 23.9473 34.6522 24.5964 34.1167 24.8804Z" fill="white"/>
<path d="M26.7078 11.0795C26.2812 10.6529 25.5894 10.6529 25.1627 11.0795L10.7419 25.5004C10.3152 25.9271 10.3152 26.6189 10.7419 27.0455C10.9552 27.2589 11.2348 27.3656 11.5144 27.3656C11.7939 27.3656 12.0736 27.2589 12.2869 27.0455L26.7077 12.6247C27.1346 12.198 27.1346 11.5062 26.7078 11.0795Z" fill="white"/>
<path d="M14.3498 9.22827C12.1409 9.22827 10.3438 11.0254 10.3438 13.2343C10.3438 15.4432 12.1409 17.2403 14.3498 17.2403C16.5587 17.2403 18.3558 15.4432 18.3558 13.2343C18.3558 11.0254 16.5587 9.22827 14.3498 9.22827ZM14.3498 15.0552C13.3457 15.0552 12.5289 14.2383 12.5289 13.2342C12.5289 12.2302 13.3457 11.4134 14.3498 11.4134C15.3538 11.4134 16.1707 12.2302 16.1707 13.2342C16.1707 14.2383 15.3538 15.0552 14.3498 15.0552Z" fill="white"/>
<path d="M23.092 20.8826C20.8831 20.8826 19.0859 22.6797 19.0859 24.8886C19.0859 27.0975 20.8831 28.8946 23.092 28.8946C25.3009 28.8946 27.098 27.0975 27.098 24.8886C27.098 22.6797 25.3009 20.8826 23.092 20.8826ZM23.092 26.7095C22.0879 26.7095 21.271 25.8926 21.271 24.8886C21.271 23.8846 22.0879 23.0677 23.092 23.0677C24.096 23.0677 24.9128 23.8846 24.9128 24.8886C24.9128 25.8926 24.096 26.7095 23.092 26.7095Z" fill="white"/>
</svg>
