<svg width="39" height="40" viewBox="0 0 39 40" fill="none" xmlns="http://www.w3.org/2000/svg">
<path d="M15.5252 13.3718C17.8007 13.3718 19.652 11.5206 19.652 9.24506C19.4445 3.77791 11.6051 3.7794 11.3984 9.24513C11.3984 11.5206 13.2497 13.3718 15.5252 13.3718ZM15.5252 7.36243C16.5633 7.36243 17.4079 8.20698 17.4079 9.24506C17.3132 11.7392 13.7369 11.7385 13.6426 9.24506C13.6426 8.20698 14.4872 7.36243 15.5252 7.36243Z" fill="white"/>
<path d="M38.3253 23.5871L30.5131 19.0765C30.4999 19.0689 30.4865 19.0622 30.4732 19.0552V4.43767C30.4732 2.49056 28.898 0.911865 26.9474 0.911865H4.11182C2.16433 0.911865 0.585938 2.48734 0.585938 4.43767V27.2733C0.585264 29.2201 2.16029 30.7992 4.11054 30.7991H21.0178V33.5795C21.0178 33.9803 21.2317 34.3508 21.5789 34.5512L29.391 39.0618C29.7383 39.2623 30.1659 39.2623 30.5132 39.0618L38.3253 34.5513C38.6724 34.3508 38.8863 33.9804 38.8863 33.5795V24.5588C38.8863 24.1579 38.6724 23.7876 38.3253 23.5871ZM2.8301 4.43767C2.8301 3.72978 3.40296 3.15603 4.11182 3.15603H26.9474C27.6552 3.15603 28.229 3.72889 28.229 4.43767V16.356L24.2753 10.4256C23.8513 9.76486 22.832 9.76493 22.4081 10.4256L14.3277 22.5462L9.85291 15.834C9.42891 15.1732 8.40961 15.1733 7.98569 15.834L2.8301 23.5673V4.43767ZM4.11054 28.5549C3.27459 28.5549 2.93318 27.8697 2.86279 27.5638L8.91926 18.4792L15.6364 28.5549H4.11054ZM18.3335 28.5549L15.6763 24.5691L23.3417 13.0709L27.914 19.9293L21.5788 23.5871C21.2316 23.7876 21.0178 24.1579 21.0178 24.5588V28.5549H18.3335ZM36.6421 32.9317L29.9521 36.7944L23.262 32.9317V25.2066L29.9521 21.3439L36.6421 25.2066V32.9317Z" fill="white"/>
<path d="M29.0243 24.2399L26.2197 28.4464C25.9684 28.8234 25.9684 29.3144 26.2197 29.6913L29.0243 33.8985C29.4485 34.5593 30.4675 34.5591 30.8915 33.8985L33.6961 29.6913C33.9474 29.3144 33.9474 28.8234 33.6961 28.4464L30.8915 24.2399C30.4675 23.5791 29.4484 23.5793 29.0243 24.2399ZM31.414 29.069L29.958 31.2531L28.5019 29.069L29.958 26.8852L31.414 29.069Z" fill="white"/>
</svg>
