<svg width="36" height="36" viewBox="0 0 36 36" fill="none" xmlns="http://www.w3.org/2000/svg">
<path d="M34.1789 11.066C33.8558 10.7404 33.4713 10.4821 33.0478 10.3059C32.6242 10.1297 32.17 10.0393 31.7113 10.0397H25.8916V4.22004C25.8916 3.29338 25.5235 2.40468 24.8683 1.74943C24.213 1.09419 23.3243 0.726074 22.3977 0.726074H3.75959C2.83293 0.726074 1.94423 1.09419 1.28898 1.74943C0.633738 2.40468 0.265625 3.29338 0.265625 4.22004V22.8581C0.26959 23.7837 0.638382 24.6704 1.29198 25.3257C1.6151 25.6513 1.99953 25.9097 2.42308 26.0859C2.84662 26.262 3.30087 26.3525 3.75959 26.3521H9.57922V32.1717C9.57922 33.0984 9.94733 33.9871 10.6026 34.6423C11.2578 35.2976 12.1465 35.6657 13.0732 35.6657H31.7113C32.6368 35.6617 33.5235 35.2929 34.1789 34.6393C34.5045 34.3162 34.7628 33.9318 34.939 33.5082C35.1152 33.0847 35.2056 32.6304 35.2052 32.1717V13.5445C35.2071 13.084 35.1173 12.6277 34.9411 12.2022C34.7649 11.7766 34.5058 11.3904 34.1789 11.066ZM3.75959 24.0264C3.60523 24.0223 3.45325 23.9873 3.31261 23.9236C3.17198 23.8598 3.04552 23.7686 2.94069 23.6552C2.7257 23.4366 2.60429 23.1429 2.60221 22.8363V4.22004C2.60429 3.91345 2.7257 3.61972 2.94069 3.40114C3.04826 3.2937 3.17595 3.20851 3.31646 3.15043C3.45697 3.09235 3.60755 3.06253 3.75959 3.06266H22.3977C22.7057 3.06265 23.0012 3.18424 23.22 3.40098C23.4387 3.61772 23.5631 3.91208 23.566 4.22004V10.0397H13.0841C12.1574 10.0397 11.2687 10.4078 10.6135 11.063C9.95825 11.7183 9.59013 12.607 9.59013 13.5336V24.0155L3.75959 24.0264ZM32.8796 32.1717C32.8797 32.3238 32.8499 32.4743 32.7918 32.6149C32.7337 32.7554 32.6485 32.8831 32.5411 32.9906C32.3232 33.2066 32.029 33.3282 31.7222 33.3291H13.0841C12.9307 33.3291 12.7788 33.2989 12.637 33.2402C12.4953 33.1815 12.3665 33.0954 12.258 32.9869C12.1495 32.8784 12.0634 32.7496 12.0047 32.6079C11.946 32.4662 11.9158 32.3142 11.9158 32.1608V13.5445C11.9265 13.2387 12.0557 12.9489 12.2761 12.7366C12.3837 12.6291 12.5114 12.5439 12.6519 12.4859C12.7924 12.4278 12.943 12.398 13.095 12.3981H31.7113C32.0211 12.3981 32.3183 12.5212 32.5374 12.7403C32.7565 12.9594 32.8796 13.2565 32.8796 13.5664V32.1717Z" fill="white"/>
<path d="M23.554 18.1958H21.2283V21.6898H17.7344V24.0154H21.2283V27.5203H23.554V24.0154H27.0589V21.6898H23.554V18.1958Z" fill="white"/>
</svg>
