<svg width="40" height="40" viewBox="0 0 40 40" fill="none" xmlns="http://www.w3.org/2000/svg">
<path d="M37.6274 0.797092L7.2338 8.79538C6.76189 8.91969 6.42283 9.33269 6.39279 9.81962C6.36274 10.3068 6.64848 10.7584 7.10153 10.9396L19.2533 15.8004L16.1052 22.1865C15.8911 22.6212 15.9774 23.1438 16.32 23.4864C16.6614 23.8278 17.1839 23.9162 17.6199 23.7015L24.0063 20.553L28.8668 32.7048C29.0482 33.1579 29.4992 33.4436 29.9867 33.4139C30.474 33.3838 30.887 33.0448 31.011 32.5726L39.0093 2.17894C39.2279 1.34942 38.4702 0.575866 37.6274 0.797092ZM34.157 4.04949L23.246 14.9608L11.1225 10.1112L34.157 4.04949ZM19.6068 20.1995L21.3601 16.6429L22.648 17.1584L23.1632 18.4462L19.6068 20.1995ZM29.6951 28.6839L24.8455 16.5604L35.7566 5.64933L29.6951 28.6839Z" fill="white"/>
<path d="M13.3544 24.8453L0.761084 37.4387C0.319222 37.8805 0.319222 38.5966 0.761084 39.0382C1.20265 39.4801 1.91906 39.4801 2.36062 39.0382L14.954 26.4451C15.3959 26.0033 15.3959 25.2872 14.954 24.8453C14.5121 24.4035 13.796 24.4035 13.3544 24.8453Z" fill="white"/>
<path d="M17.8821 27.107L9.96421 35.0249C9.52235 35.4668 9.52235 36.1829 9.96421 36.6247C10.4058 37.0663 11.1222 37.0663 11.5637 36.6247L19.4819 28.7066C19.9235 28.265 19.9235 27.5489 19.4819 27.107C19.0401 26.6652 18.3239 26.6652 17.8821 27.107Z" fill="white"/>
<path d="M11.093 20.3207L3.17515 28.2385C2.73328 28.6801 2.73328 29.3965 3.17515 29.8381C3.61671 30.2799 4.33283 30.2799 4.77469 29.8381L12.6926 21.9202C13.1344 21.4783 13.1344 20.7622 12.6926 20.3207C12.251 19.8788 11.5346 19.8788 11.093 20.3207Z" fill="white"/>
</svg>
