<svg width="88" height="88" viewBox="0 0 88 88" fill="none" xmlns="http://www.w3.org/2000/svg">
<circle cx="1.68047" cy="1.22539" r="1.18243" fill="white"/>
<circle cx="22.9656" cy="1.22344" r="1.18243" fill="white"/>
<circle cx="44.2508" cy="1.22344" r="1.18243" fill="white"/>
<circle cx="65.532" cy="1.22344" r="1.18243" fill="white"/>
<circle cx="86.8172" cy="1.22344" r="1.18243" fill="white"/>
<circle cx="1.68047" cy="22.5086" r="1.18243" fill="white"/>
<circle cx="22.9656" cy="22.5066" r="1.18243" fill="white"/>
<circle cx="44.2508" cy="22.5066" r="1.18243" fill="white"/>
<circle cx="65.532" cy="22.5086" r="1.18243" fill="white"/>
<circle cx="86.8172" cy="22.5066" r="1.18243" fill="white"/>
<circle cx="1.68047" cy="43.7898" r="1.18243" fill="white"/>
<circle cx="22.9656" cy="43.7898" r="1.18243" fill="white"/>
<circle cx="44.2508" cy="43.7898" r="1.18243" fill="white"/>
<circle cx="65.532" cy="43.7898" r="1.18243" fill="white"/>
<circle cx="86.8172" cy="43.7898" r="1.18243" fill="white"/>
<circle cx="1.68047" cy="65.075" r="1.18243" fill="white"/>
<circle cx="22.9656" cy="65.0731" r="1.18243" fill="white"/>
<circle cx="44.2508" cy="65.0731" r="1.18243" fill="white"/>
<circle cx="65.532" cy="65.075" r="1.18243" fill="white"/>
<circle cx="86.8172" cy="65.0731" r="1.18243" fill="white"/>
<circle cx="1.68047" cy="86.3582" r="1.18243" fill="white"/>
<circle cx="22.9656" cy="86.3582" r="1.18243" fill="white"/>
<circle cx="44.2508" cy="86.3582" r="1.18243" fill="white"/>
<circle cx="65.532" cy="86.3602" r="1.18243" fill="white"/>
<circle cx="86.8172" cy="86.3582" r="1.18243" fill="white"/>
</svg>
