<svg width="130" viewBox="0 0 130 379" fill="none" xmlns="http://www.w3.org/2000/svg">
<path opacity="0.1" fill-rule="evenodd" clip-rule="evenodd" d="M0 63.4706V0.457031L97.3475 169.068C101.698 176.603 99.1161 186.237 91.5813 190.587C84.0466 194.938 74.412 192.356 70.0618 184.821L0 63.4706ZM0 196.752V133.739L127.748 355.006C132.099 362.54 129.517 372.175 121.982 376.525C114.448 380.875 104.813 378.294 100.463 370.759L0 196.752ZM0 322.542V259.528L29.5409 310.695C33.8911 318.229 31.3095 327.864 23.7748 332.214C16.2401 336.564 6.60544 333.983 2.25526 326.448L0 322.542ZM96.3828 223.761C92.2407 216.587 94.6988 207.413 101.873 203.271C109.048 199.129 118.221 201.587 122.364 208.761C126.506 215.935 124.048 225.109 116.873 229.251C109.699 233.394 100.525 230.935 96.3828 223.761Z" fill="#19242B"/>
</svg>
