<svg width="43" height="44" viewBox="0 0 43 44" fill="none" xmlns="http://www.w3.org/2000/svg">
<path d="M26.9456 24.1657C26.2008 23.4912 25.175 23.168 23.84 23.168H16.0762V31.0092H23.84C25.175 31.0092 26.2149 30.6649 26.9456 29.9693C27.6833 29.2807 28.0557 28.2971 28.0557 27.0323C28.0557 25.7887 27.6904 24.8402 26.9456 24.1657V24.1657Z" fill="white"/>
<path d="M25.8757 19.1134C26.5783 18.5091 26.9296 17.6519 26.9296 16.5277C26.9296 15.263 26.6134 14.3707 25.9811 13.8578C25.3488 13.3449 24.4354 13.085 23.2409 13.085H16.0742V20.0127H23.2409C24.2949 20.0127 25.1731 19.7176 25.8757 19.1134Z" fill="white"/>
<path d="M35.8334 0.164062H7.16664C3.225 0.164062 0 3.38906 0 7.3307V35.9973C0 39.9391 3.225 43.1641 7.16664 43.1641H35.8333C39.775 43.1641 43 39.9391 43 35.9974V7.3307C43 3.38906 39.775 0.164063 35.8334 0.164063V0.164062ZM31.9198 30.3554C31.5685 31.2126 31.0205 31.9504 30.2686 32.5687C29.5169 33.187 28.5613 33.6788 27.388 34.0442C26.2146 34.4095 24.8234 34.5922 23.2074 34.5922H11.6845V9.50884H23.8748C26.1232 9.50884 27.9289 10.0217 29.2849 11.0546C30.6409 12.0874 31.3225 13.6402 31.3225 15.727C31.3225 16.9917 31.0133 18.0736 30.395 18.973C29.7767 19.8724 28.8915 20.575 27.7391 21.0669V21.1371C29.2848 21.4674 30.4583 22.1981 31.2522 23.3293C32.0461 24.4675 32.4466 25.8868 32.4466 27.6012C32.4467 28.5848 32.2711 29.5053 31.9198 30.3554V30.3554Z" fill="white"/>
</svg>
