<svg width="55" height="55" viewBox="0 0 55 55" fill="none" xmlns="http://www.w3.org/2000/svg">
<circle cx="40" cy="28.1641" r="14" fill="white"/>
<path d="M36.8945 44.7324V51.8217L39.5296 50.3575L42.1647 51.8217V44.7324C40.4212 45.0369 38.6381 45.0369 36.8945 44.7324V44.7324Z" fill="white"/>
<path d="M43.918 52.7972L47.0046 54.5118C47.1382 54.5861 47.2889 54.6242 47.4418 54.6224C47.5947 54.6206 47.7445 54.5789 47.8764 54.5014C48.0082 54.424 48.1176 54.3135 48.1936 54.1808C48.2696 54.0481 48.3097 53.8979 48.3098 53.7449V42.4219C46.9471 43.2751 45.4677 43.9261 43.918 44.3543V52.7972Z" fill="white"/>
<path d="M30.7441 53.7449C30.7441 53.8979 30.7841 54.0483 30.86 54.1811C30.936 54.3139 31.0453 54.4245 31.1772 54.5021C31.3091 54.5797 31.4589 54.6214 31.6119 54.6233C31.7649 54.6251 31.9157 54.587 32.0494 54.5126L35.136 52.7972V44.3543C33.5862 43.9261 32.1069 43.2751 30.7441 42.4219V53.7449Z" fill="white"/>
<path d="M39.528 13.3398C36.5747 13.3398 33.6877 14.2156 31.2321 15.8564C28.7765 17.4972 26.8626 19.8293 25.7324 22.5578C24.6022 25.2863 24.3065 28.2887 24.8826 31.1853C25.4588 34.0818 26.881 36.7425 28.9693 38.8308C31.0576 40.9192 33.7183 42.3413 36.6148 42.9175C39.5114 43.4937 42.5138 43.1979 45.2423 42.0678C47.9708 40.9376 50.3029 39.0237 51.9437 36.5681C53.5845 34.1125 54.4603 31.2255 54.4603 28.2721C54.4559 24.3132 52.8812 20.5177 50.0818 17.7183C47.2824 14.9189 43.4869 13.3443 39.528 13.3398V13.3398ZM39.528 37.9342C37.617 37.9342 35.749 37.3675 34.16 36.3058C32.5711 35.2442 31.3327 33.7351 30.6014 31.9696C29.8701 30.2041 29.6788 28.2614 30.0516 26.3871C30.4244 24.5129 31.3446 22.7913 32.6959 21.44C34.0471 20.0887 35.7688 19.1685 37.643 18.7957C39.5173 18.4229 41.46 18.6142 43.2255 19.3455C44.991 20.0768 46.5 21.3153 47.5617 22.9042C48.6234 24.4931 49.1901 26.3611 49.1901 28.2721C49.1873 30.8338 48.1684 33.2898 46.357 35.1012C44.5456 36.9125 42.0897 37.9314 39.528 37.9342Z" fill="white"/>
<path d="M39.528 13.3398C36.5747 13.3398 33.6877 14.2156 31.2321 15.8564C28.7765 17.4972 26.8626 19.8293 25.7324 22.5578C24.6022 25.2863 24.3065 28.2887 24.8826 31.1853C25.4588 34.0818 26.881 36.7425 28.9693 38.8308C31.0576 40.9192 33.7183 42.3413 36.6148 42.9175C39.5114 43.4937 42.5138 43.1979 45.2423 42.0678C47.9708 40.9376 50.3029 39.0237 51.9437 36.5681C53.5845 34.1125 54.4603 31.2255 54.4603 28.2721C54.4559 24.3132 52.8812 20.5177 50.0818 17.7183C47.2824 14.9189 43.4869 13.3443 39.528 13.3398V13.3398ZM39.528 37.9342C37.617 37.9342 35.749 37.3675 34.16 36.3058C32.5711 35.2442 31.3327 33.7351 30.6014 31.9696C29.8701 30.2041 29.6788 28.2614 30.0516 26.3871C30.4244 24.5129 31.3446 22.7913 32.6959 21.44C34.0471 20.0887 35.7688 19.1685 37.643 18.7957C39.5173 18.4229 41.46 18.6142 43.2255 19.3455C44.991 20.0768 46.5 21.3153 47.5617 22.9042C48.6234 24.4931 49.1901 26.3611 49.1901 28.2721C49.1873 30.8338 48.1684 33.2898 46.357 35.1012C44.5456 36.9125 42.0897 37.9314 39.528 37.9342Z" fill="white"/>
<path d="M39.528 13.3398C36.5747 13.3398 33.6877 14.2156 31.2321 15.8564C28.7765 17.4972 26.8626 19.8293 25.7324 22.5578C24.6022 25.2863 24.3065 28.2887 24.8826 31.1853C25.4588 34.0818 26.881 36.7425 28.9693 38.8308C31.0576 40.9192 33.7183 42.3413 36.6148 42.9175C39.5114 43.4937 42.5138 43.1979 45.2423 42.0678C47.9708 40.9376 50.3029 39.0237 51.9437 36.5681C53.5845 34.1125 54.4603 31.2255 54.4603 28.2721C54.4559 24.3132 52.8812 20.5177 50.0818 17.7183C47.2824 14.9189 43.4869 13.3443 39.528 13.3398V13.3398ZM39.528 37.9342C37.617 37.9342 35.749 37.3675 34.16 36.3058C32.5711 35.2442 31.3327 33.7351 30.6014 31.9696C29.8701 30.2041 29.6788 28.2614 30.0516 26.3871C30.4244 24.5129 31.3446 22.7913 32.6959 21.44C34.0471 20.0887 35.7688 19.1685 37.643 18.7957C39.5173 18.4229 41.46 18.6142 43.2255 19.3455C44.991 20.0768 46.5 21.3153 47.5617 22.9042C48.6234 24.4931 49.1901 26.3611 49.1901 28.2721C49.1873 30.8338 48.1684 33.2898 46.357 35.1012C44.5456 36.9125 42.0897 37.9314 39.528 37.9342Z" fill="white"/>
<path d="M39.5266 0.164062H11.4188C10.2544 0.165457 9.13817 0.628616 8.31484 1.45195C7.49151 2.27527 7.02835 3.39155 7.02696 4.55591V35.2988H2.63511C1.93623 35.2988 1.26598 35.5765 0.771805 36.0706C0.277627 36.5648 0 37.2351 0 37.9339V39.6907C0.00139473 40.855 0.464554 41.9713 1.28788 42.7947C2.11121 43.618 3.22749 44.0811 4.39185 44.0825H32.4997C33.664 44.0811 34.7803 43.618 35.6036 42.7947C36.427 41.9713 36.8901 40.855 36.8915 39.6907V8.94776H41.2834C41.9822 8.94776 42.6525 8.67013 43.1467 8.17595C43.6408 7.68177 43.9185 7.01152 43.9185 6.31265V4.55591C43.9171 3.39155 43.4539 2.27527 42.6306 1.45195C41.8073 0.628616 40.691 0.165457 39.5266 0.164062V0.164062ZM4.39185 42.3258C3.69297 42.3258 3.02272 42.0482 2.52854 41.554C2.03437 41.0598 1.75674 40.3896 1.75674 39.6907V37.9339C1.75674 37.701 1.84928 37.4776 2.01401 37.3128C2.17873 37.1481 2.40215 37.0556 2.63511 37.0556H27.2295C27.4624 37.0556 27.6858 37.1481 27.8506 37.3128C28.0153 37.4776 28.1078 37.701 28.1078 37.9339V39.6907C28.1065 40.6412 28.4149 41.5662 28.9862 42.3258H4.39185ZM35.1348 39.6907C35.1348 40.3896 34.8571 41.0598 34.363 41.554C33.8688 42.0482 33.1985 42.3258 32.4997 42.3258C31.8008 42.3258 31.1305 42.0482 30.6364 41.554C30.1422 41.0598 29.8646 40.3896 29.8646 39.6907V37.9339C29.8646 37.2351 29.5869 36.5648 29.0928 36.0706C28.5986 35.5765 27.9283 35.2988 27.2295 35.2988H8.78369V4.55591C8.78369 3.85704 9.06132 3.18679 9.5555 2.69261C10.0497 2.19843 10.7199 1.9208 11.4188 1.9208H36.036C35.4547 2.67654 35.138 3.60247 35.1348 4.55591V39.6907ZM42.1617 6.31265C42.1617 6.54561 42.0692 6.76902 41.9045 6.93375C41.7397 7.09848 41.5163 7.19102 41.2834 7.19102H36.8915V4.55591C36.8915 3.85704 37.1691 3.18679 37.6633 2.69261C38.1575 2.19843 38.8278 1.9208 39.5266 1.9208C40.2255 1.9208 40.8957 2.19843 41.3899 2.69261C41.8841 3.18679 42.1617 3.85704 42.1617 4.55591V6.31265Z" fill="white"/>
<path d="M14.9311 8.94717H28.985C29.218 8.94717 29.4414 8.85463 29.6061 8.6899C29.7708 8.52517 29.8634 8.30176 29.8634 8.0688C29.8634 7.83584 29.7708 7.61242 29.6061 7.4477C29.4414 7.28297 29.218 7.19043 28.985 7.19043H14.9311C14.6981 7.19043 14.4747 7.28297 14.31 7.4477C14.1453 7.61242 14.0527 7.83584 14.0527 8.0688C14.0527 8.30176 14.1453 8.52517 14.31 8.6899C14.4747 8.85463 14.6981 8.94717 14.9311 8.94717Z" fill="white"/>
<path d="M31.6205 14.2188H12.2963C12.0634 14.2188 11.84 14.3113 11.6752 14.476C11.5105 14.6407 11.418 14.8642 11.418 15.0971C11.418 15.3301 11.5105 15.5535 11.6752 15.7182C11.84 15.8829 12.0634 15.9755 12.2963 15.9755H31.6205C31.8534 15.9755 32.0768 15.8829 32.2416 15.7182C32.4063 15.5535 32.4988 15.3301 32.4988 15.0971C32.4988 14.8642 32.4063 14.6407 32.2416 14.476C32.0768 14.3113 31.8534 14.2188 31.6205 14.2188Z" fill="white"/>
<path d="M31.6205 17.7314H12.2963C12.0634 17.7314 11.84 17.824 11.6752 17.9887C11.5105 18.1534 11.418 18.3769 11.418 18.6098C11.418 18.8428 11.5105 19.0662 11.6752 19.2309C11.84 19.3956 12.0634 19.4882 12.2963 19.4882H31.6205C31.8534 19.4882 32.0768 19.3956 32.2416 19.2309C32.4063 19.0662 32.4988 18.8428 32.4988 18.6098C32.4988 18.3769 32.4063 18.1534 32.2416 17.9887C32.0768 17.824 31.8534 17.7314 31.6205 17.7314Z" fill="white"/>
<path d="M22.8368 22.1225C22.8368 21.8896 22.7442 21.6661 22.5795 21.5014C22.4148 21.3367 22.1914 21.2441 21.9584 21.2441H12.2963C12.0634 21.2441 11.84 21.3367 11.6752 21.5014C11.5105 21.6661 11.418 21.8896 11.418 22.1225C11.418 22.3555 11.5105 22.5789 11.6752 22.7436C11.84 22.9083 12.0634 23.0009 12.2963 23.0009H21.9584C22.1914 23.0009 22.4148 22.9083 22.5795 22.7436C22.7442 22.5789 22.8368 22.3555 22.8368 22.1225Z" fill="white"/>
<path d="M39.5 18.1641C37.6211 18.1641 35.7844 18.7212 34.2221 19.7651C32.6598 20.809 31.4422 22.2927 30.7232 24.0286C30.0041 25.7645 29.816 27.6746 30.1825 29.5174C30.5491 31.3602 31.4539 33.053 32.7825 34.3816C34.1111 35.7102 35.8038 36.615 37.6466 36.9815C39.4895 37.3481 41.3996 37.1599 43.1355 36.4409C44.8714 35.7219 46.3551 34.5042 47.399 32.942C48.4428 31.3797 49 29.543 49 27.6641C48.9969 25.1454 47.9951 22.7309 46.2141 20.9499C44.4332 19.169 42.0186 18.1671 39.5 18.1641V18.1641ZM44.3619 25.1455L39.4324 31.4788C39.3463 31.5896 39.239 31.6821 39.1168 31.7509C38.9945 31.8197 38.8597 31.8634 38.7204 31.8795C38.581 31.8956 38.4399 31.8838 38.3051 31.8447C38.1704 31.8057 38.0448 31.7401 37.9357 31.6519L34.8081 29.1186C34.6968 29.0327 34.6039 28.9254 34.5347 28.803C34.4655 28.6807 34.4214 28.5457 34.4051 28.4061C34.3887 28.2665 34.4004 28.125 34.4395 27.99C34.4786 27.855 34.5442 27.7291 34.6326 27.6198C34.7209 27.5105 34.8303 27.4199 34.9541 27.3534C35.0779 27.2869 35.2138 27.2458 35.3537 27.2325C35.4937 27.2192 35.6349 27.2341 35.769 27.2761C35.9031 27.3181 36.0275 27.3865 36.1349 27.4772L38.4265 29.3287L42.6962 23.8398C42.7801 23.727 42.8857 23.6321 43.0067 23.5606C43.1278 23.4891 43.2619 23.4426 43.4012 23.4236C43.5404 23.4047 43.6821 23.4138 43.8178 23.4504C43.9536 23.4869 44.0806 23.5502 44.1916 23.6366C44.3025 23.7229 44.3951 23.8305 44.4639 23.9531C44.5327 24.0757 44.5763 24.2108 44.5921 24.3505C44.608 24.4901 44.5958 24.6316 44.5563 24.7665C44.5167 24.9014 44.4506 25.027 44.3619 25.136V25.1455Z" fill="#252835"/>
</svg>
