<svg width="46" height="47" viewBox="0 0 46 47" fill="none" xmlns="http://www.w3.org/2000/svg">
<path d="M44.6523 9.68076C45.3966 9.68076 46 9.07737 46 8.33311V1.51172C46 0.767453 45.3966 0.164062 44.6523 0.164062H37.831C37.0867 0.164062 36.4833 0.767453 36.4833 1.51172V3.57471H9.5167V1.51172C9.5167 0.767453 8.91331 0.164063 8.16904 0.164063H1.34766C0.603391 0.164063 0 0.767453 0 1.51172V8.33311C0 9.07737 0.603391 9.68076 1.34766 9.68076H3.41065V36.6474H1.34766C0.603391 36.6474 0 37.2508 0 37.995V44.8164C0 45.5607 0.603391 46.1641 1.34766 46.1641H8.16904C8.91331 46.1641 9.5167 45.5607 9.5167 44.8164V42.7534H36.4833V44.8164C36.4833 45.5607 37.0867 46.1641 37.831 46.1641H44.6523C45.3966 46.1641 46 45.5607 46 44.8164V37.995C46 37.2508 45.3966 36.6474 44.6523 36.6474H42.5894V9.68076H44.6523ZM39.1786 2.85938H43.3047V6.98545H39.1786V2.85938ZM2.69531 2.85938H6.82139V6.98545H2.69531V2.85938ZM6.82139 43.4688H2.69531V39.3427H6.82139V43.4688ZM43.3047 43.4688H39.1786V39.3427H43.3047V43.4688ZM39.894 36.6474H37.831C37.0868 36.6474 36.4834 37.2508 36.4834 37.995V40.058H9.51679V37.995C9.51679 37.2508 8.9134 36.6474 8.16913 36.6474H6.10596V9.68076H8.16895C8.91322 9.68076 9.51661 9.07737 9.51661 8.33311V6.27002H36.4832V8.33302C36.4832 9.07728 37.0866 9.68067 37.8309 9.68067H39.8939V36.6474H39.894Z" fill="white"/>
<path d="M32.6578 12.4873H13.3418C12.5975 12.4873 11.9941 13.0907 11.9941 13.835V18.7354C11.9941 19.4797 12.5975 20.0831 13.3418 20.0831C14.0861 20.0831 14.6895 19.4797 14.6895 18.7354V15.1826H21.6522V31.3254H19.1409C18.3967 31.3254 17.7933 31.9288 17.7933 32.673C17.7933 33.4173 18.3967 34.0207 19.1409 34.0207H26.8586C27.6029 34.0207 28.2063 33.4173 28.2063 32.673C28.2063 31.9288 27.6029 31.3254 26.8586 31.3254H24.3475V15.1826H31.3102V18.7354C31.3102 19.4797 31.9136 20.0831 32.6578 20.0831C33.4021 20.0831 34.0055 19.4797 34.0055 18.7354V13.835C34.0055 13.0907 33.4021 12.4873 32.6578 12.4873V12.4873Z" fill="white"/>
</svg>
