<svg width="48" height="50" viewBox="0 0 48 50" fill="none" xmlns="http://www.w3.org/2000/svg">
<path fill-rule="evenodd" clip-rule="evenodd" d="M30.6974 5.98347C30.6974 9.19743 28.092 11.8029 24.878 11.8029C21.664 11.8029 19.0586 9.19743 19.0586 5.98347C19.0586 2.7695 21.664 0.164062 24.878 0.164062C28.092 0.164062 30.6974 2.7695 30.6974 5.98347ZM28.3692 46.4258C28.3692 48.354 26.8062 49.9171 24.878 49.9171C22.9498 49.9171 21.3867 48.354 21.3867 46.4258C21.3867 44.4977 22.9498 42.9346 24.878 42.9346C26.8062 42.9346 28.3692 44.4977 28.3692 46.4258ZM10.5777 17.1432C13.4705 17.1432 15.8155 14.7981 15.8155 11.9053C15.8155 9.01254 13.4705 6.66748 10.5777 6.66748C7.68491 6.66748 5.33984 9.01254 5.33984 11.9053C5.33984 14.7981 7.68491 17.1432 10.5777 17.1432ZM42.085 40.5015C42.085 42.1085 40.7823 43.4112 39.1753 43.4112C37.5683 43.4112 36.2656 42.1085 36.2656 40.5015C36.2656 38.8945 37.5683 37.5918 39.1753 37.5918C40.7823 37.5918 42.085 38.8945 42.085 40.5015ZM4.65439 30.8605C7.22494 30.8605 9.30878 28.7767 9.30878 26.2061C9.30878 23.6356 7.22494 21.5518 4.65439 21.5518C2.08384 21.5518 0 23.6356 0 26.2061C0 28.7767 2.08384 30.8605 4.65439 30.8605ZM47.422 26.2032C47.422 27.488 46.3805 28.5295 45.0958 28.5295C43.811 28.5295 42.7695 27.488 42.7695 26.2032C42.7695 24.9185 43.811 23.877 45.0958 23.877C46.3805 23.877 47.422 24.9185 47.422 26.2032ZM7.69771 37.6257C6.10597 39.2174 6.10597 41.7929 7.69771 43.3847C9.28757 44.9764 11.8668 44.9764 13.4567 43.3847C15.0484 41.7929 15.0484 39.2174 13.4567 37.6257C11.8668 36.0321 9.28946 36.017 7.69771 37.6257ZM40.9191 11.9063C40.9191 12.8699 40.1379 13.651 39.1744 13.651C38.2108 13.651 37.4297 12.8699 37.4297 11.9063C37.4297 10.9427 38.2108 10.1616 39.1744 10.1616C40.1379 10.1616 40.9191 10.9427 40.9191 11.9063Z" fill="white"/>
</svg>
