<svg width="61" height="30" viewBox="0 0 61 30" fill="none" xmlns="http://www.w3.org/2000/svg">
<path d="M14.4187 0.327148L19.5811 17.8788L24.7435 0.327148H28.4815H38.7391V2.07155L33.47 11.1495C35.3211 11.7438 36.7213 12.8239 37.6706 14.39C38.6199 15.956 39.095 17.7954 39.095 19.9073C39.095 22.5186 38.4011 24.7139 37.0126 26.4941C35.6241 28.2744 33.8259 29.1636 31.6189 29.1636C29.957 29.1636 28.5093 28.6357 27.2758 27.5797C26.0415 26.5237 25.1281 25.094 24.5346 23.2895L27.4533 22.0793C27.8809 23.1712 28.4448 24.0317 29.1449 24.6601C29.8449 25.2894 30.6696 25.6031 31.6189 25.6031C32.6157 25.6031 33.4584 25.0455 34.1468 23.9304C34.8352 22.8144 35.1795 21.4743 35.1795 19.9073C35.1795 18.1746 34.811 16.8336 34.076 15.8843C33.2208 14.7691 31.8798 14.2116 30.052 14.2116H28.6285V12.503L33.6134 3.88678H27.5968L27.2543 4.46944L19.937 29.1636H19.5811L14.2403 11.2929L8.89952 29.1645H8.54365L0 0.327148H3.73801L8.90042 17.8788L12.3901 6.05967L10.6816 0.327148H14.4187V0.327148Z" fill="white"/>
<path fill-rule="evenodd" clip-rule="evenodd" d="M58.1682 0.326172C57.434 0.326172 56.7752 0.590612 56.2759 1.09798C55.7461 1.63582 55.4512 2.33143 55.4512 3.05035C55.4512 3.76927 55.7317 4.4353 56.2463 4.9579C56.7689 5.48768 57.4421 5.77542 58.1691 5.77542C58.8799 5.77542 59.5693 5.48768 60.1062 4.96597C60.6207 4.46667 60.9004 3.79975 60.9004 3.05035C60.9004 2.32336 60.6127 1.64299 60.1134 1.13563C59.5908 0.605851 58.9095 0.326172 58.1682 0.326172ZM60.5374 3.07366C60.5374 3.70204 60.2945 4.2847 59.848 4.71587C59.3792 5.17035 58.7966 5.41238 58.1529 5.41238C57.5479 5.41238 56.95 5.16318 56.5036 4.7087C56.0571 4.25512 55.807 3.67156 55.807 3.05125C55.807 2.43093 56.0643 1.82496 56.526 1.35614C56.9571 0.916904 57.5398 0.682942 58.1754 0.682942C58.8261 0.682942 59.4088 0.925868 59.8633 1.38662C60.3025 1.82496 60.5374 2.41569 60.5374 3.07366ZM58.2444 1.45385H57.079V4.54197H57.6617V3.22515H58.2372L58.8656 4.54197H59.5164L58.827 3.13372C59.2734 3.04318 59.5307 2.74019 59.5307 2.30185C59.5307 1.7416 59.1067 1.45385 58.2444 1.45385ZM58.1377 1.83213C58.6827 1.83213 58.9319 1.98363 58.9319 2.36191C58.9319 2.72496 58.6827 2.85404 58.152 2.85404H57.6599V1.83213H58.1377V1.83213Z" fill="white"/>
<path d="M53.5809 0.164062L54.1868 3.8456L52.0435 7.94666C52.0435 7.94666 51.2206 6.20674 49.8536 5.244C48.7017 4.43275 47.9514 4.25616 46.778 4.49819C45.2712 4.80924 43.5626 6.61102 42.8168 8.83231C41.9249 11.4902 41.9159 12.7765 41.8846 13.958C41.8344 15.8521 42.1329 16.9717 42.1329 16.9717C42.1329 16.9717 40.8322 14.5639 40.8438 11.0375C40.8519 8.52036 41.2481 6.23811 42.4125 3.98544C43.4371 2.00528 44.9601 0.816647 46.3119 0.676807C47.7094 0.532486 48.8138 1.20569 49.6672 1.93536C50.5627 2.70089 51.4689 4.37359 51.4689 4.37359L53.5809 0.164062Z" fill="white"/>
<path d="M53.8464 20.9934C53.8464 20.9934 52.8989 22.6867 52.309 23.3393C51.7183 23.9919 50.6623 25.1411 49.3581 25.7157C48.0529 26.2903 47.3698 26.3987 46.0808 26.275C44.7927 26.1513 43.5951 25.4055 43.1756 25.0945C42.756 24.7834 41.6839 23.8673 41.0789 23.013C40.4729 22.1578 39.5254 20.4502 39.5254 20.4502C39.5254 20.4502 40.0534 22.1632 40.3841 22.8893C40.5742 23.307 41.1586 24.5871 41.9887 25.7004C42.7614 26.7394 44.2647 28.5277 46.5478 28.9311C48.831 29.3354 50.3997 28.3099 50.7878 28.0607C51.176 27.8124 51.9944 27.1275 52.5125 26.5735C53.0531 25.9954 53.5649 25.2576 53.8482 24.8148C54.0552 24.4921 54.3923 23.8359 54.3923 23.8359L53.8464 20.9934Z" fill="white"/>
</svg>
